<?xml version="1.0" standalone="no"?>
<!DOCTYPE svg PUBLIC "-//W3C//DTD SVG 1.1//EN" "http://www.w3.org/Graphics/SVG/1.1/DTD/svg11.dtd" >
<svg xmlns="http://www.w3.org/2000/svg">
<metadata></metadata>
<defs>
<font id="korolev_boldregular" horiz-adv-x="1134" >
<font-face units-per-em="2048" ascent="1536" descent="-512" />
<missing-glyph horiz-adv-x="450" />
<glyph unicode="&#xfb01;" horiz-adv-x="1155" d="M47 913v236h115q0 67 6.5 118t23.5 101t48.5 84.5t79 62t118 41t162.5 13.5q94 0 167.5 -13.5t119.5 -38t77 -53.5t46 -66.5t20.5 -69t5.5 -68.5h-268q0 4 -1 9.5t-10 21t-25 27t-50.5 21t-81.5 9.5q-57 0 -90.5 -10t-51.5 -36.5t-23 -60t-5 -92.5h201v-236h-201v-913 h-268v913h-115zM768 0v1149h268v-1149h-268z" />
<glyph unicode="&#xfb02;" horiz-adv-x="1155" d="M47 913v236h115q0 87 9.5 148t37 115.5t75.5 87t126.5 51t189.5 18.5q113 0 195 -25.5t127.5 -64t72 -97.5t34 -111.5t7.5 -121.5v-1149h-268v1149q0 31 -0.5 46t-3.5 40.5t-9 38.5t-18 29.5t-30 24.5t-45 14t-62 6q-26 0 -46.5 -1.5t-36.5 -6t-28.5 -8t-22 -13.5 t-15.5 -16.5t-10 -22t-6.5 -25t-3.5 -31t-1 -34.5v-41h201v-236h-201v-913h-268v913h-115z" />
<glyph horiz-adv-x="2048" />
<glyph horiz-adv-x="2048" />
<glyph unicode="&#xd;" horiz-adv-x="2048" />
<glyph unicode=" "  horiz-adv-x="450" />
<glyph unicode="&#x09;" horiz-adv-x="450" />
<glyph unicode="&#xa0;" horiz-adv-x="450" />
<glyph unicode="!" horiz-adv-x="542" d="M68 145q0 67 47.5 115.5t113.5 48.5q67 0 115.5 -48.5t48.5 -115.5t-48 -114t-116 -47q-66 0 -113.5 47t-47.5 114zM70 1298q0 69 43 114.5t116 45.5t116.5 -45.5t43.5 -114.5q0 -44 -24 -208l-101 -646h-69l-99 646q-3 21 -9 57.5t-9 56.5t-5.5 46.5t-2.5 47.5z" />
<glyph unicode="&#x22;" horiz-adv-x="884" d="M88 1444h287l-41 -682h-205zM510 1444h287l-43 -682h-205z" />
<glyph unicode="#" horiz-adv-x="1437" d="M98 387v244h219l50 186h-269v244h332l131 493h256l-131 -493h197l131 493h256l-131 -493h159v-244h-223l-49 -186h272v-244h-335l-127 -491h-256l127 491h-197l-127 -491h-256l127 491h-156zM573 631h197l49 186h-196z" />
<glyph unicode="$" horiz-adv-x="1093" d="M57 469h279q0 -119 56 -174t151 -55q91 0 152 41t61 125q0 45 -23.5 79.5t-62.5 58t-90 43.5t-107.5 39.5t-113 42t-107.5 56t-90 75.5t-62.5 106t-23.5 143q0 157 81.5 259t227.5 140v168h104v-148q8 0 29 1t33 1q10 0 29 -1t28 -1v148h105v-170q141 -45 222.5 -165 t84.5 -296h-279q0 113 -50.5 165t-139.5 52q-84 0 -141.5 -40.5t-57.5 -117.5q0 -46 23.5 -81t63 -58t91 -42.5t108.5 -38t114 -40.5t108.5 -54t91 -73.5t63 -105t23.5 -143.5q0 -164 -86.5 -272.5t-238.5 -145.5v-156h-105v137q-10 0 -30.5 -1t-30.5 -1t-29.5 1t-28.5 1 v-137h-104v160q-151 43 -239 167.5t-89 307.5z" />
<glyph unicode="%" horiz-adv-x="2342" d="M78 932v82q0 208 107 329t300 121q189 0 298.5 -121.5t109.5 -328.5v-82q0 -213 -109 -335t-299 -122q-194 0 -300.5 121.5t-106.5 335.5zM330 926q0 -211 155 -211q156 0 156 211v88q0 211 -156 211q-155 0 -155 -211v-88zM821 -104q70 277 207 829.5t207 828.5h256 l-414 -1658h-256zM1417 438v84q0 208 107.5 329.5t300.5 121.5q190 0 299.5 -122t109.5 -329v-84q0 -211 -109.5 -332.5t-299.5 -121.5q-194 0 -301 121t-107 333zM1669 434q0 -112 39.5 -161.5t116.5 -49.5q155 0 155 211v88q0 211 -155 211q-156 0 -156 -211v-88z" />
<glyph unicode="&#x26;" horiz-adv-x="1275" d="M68 428q0 124 64 205.5t153 107.5q-90 36 -141.5 119t-51.5 201q0 176 132.5 292.5t338.5 116.5q209 0 341 -132.5t132 -348.5h-278q0 113 -52 165t-141 52q-81 0 -138.5 -40.5t-57.5 -125.5q0 -86 54 -138t148 -52h84v-244h-92q-108 0 -161.5 -46.5t-53.5 -125.5 q0 -96 65.5 -143t161.5 -47q43 0 82.5 12.5t76.5 39.5t59 78t22 120v356h406v-258h-129q0 -325 -134.5 -473t-384.5 -148q-243 0 -374 123t-131 334z" />
<glyph unicode="'" horiz-adv-x="462" d="M88 1444h287l-43 -682h-205z" />
<glyph unicode="(" horiz-adv-x="624" d="M88 367v714q0 127 22 212.5t73.5 145t138 86.5t215.5 27v-241q-110 0 -146.5 -38.5t-36.5 -135.5v-826q0 -99 35.5 -136.5t147.5 -37.5v-241q-129 0 -215.5 27t-138 86.5t-73.5 145t-22 212.5z" />
<glyph unicode=")" horiz-adv-x="624" d="M68 -104v241q58 0 94 9t55.5 31.5t26 53t6.5 80.5v826q0 97 -36.5 135.5t-145.5 38.5v241q129 0 215 -27t138 -86.5t73.5 -145t21.5 -212.5v-714q0 -127 -21.5 -212.5t-73.5 -145t-138 -86.5t-215 -27z" />
<glyph unicode="*" horiz-adv-x="1114" d="M113 905l243 131l-243 127l96 162l240 -143l-7 278h191l-12 -276l239 139l101 -160l-248 -127l248 -129l-101 -159l-239 141l12 -266h-191l7 266l-240 -141z" />
<glyph unicode="+" horiz-adv-x="1114" d="M88 602v244h315v319h244v-319h316v-244h-316v-321h-244v321h-315z" />
<glyph unicode="," horiz-adv-x="559" d="M-14 -264l184 663h289l-269 -663h-204z" />
<glyph unicode="-" horiz-adv-x="681" d="M68 477v211h542v-211h-542z" />
<glyph unicode="." horiz-adv-x="479" d="M78 145q0 68 47.5 116t114.5 48t114 -48t47 -116q0 -67 -46.5 -114t-114.5 -47t-115 47t-47 114z" />
<glyph unicode="/" horiz-adv-x="792" d="M6 -104l430 1658h273q-309 -1178 -433 -1658h-270z" />
<glyph unicode="0" d="M88 477v492q0 221 133.5 361t345.5 140t347 -140t135 -361v-492q0 -220 -135 -358.5t-347 -138.5t-345.5 138.5t-133.5 358.5zM369 492q0 -129 55 -185.5t143 -56.5q89 0 145 56t56 183v467q0 129 -55 185.5t-146 56.5q-198 0 -198 -242v-464z" />
<glyph unicode="1" horiz-adv-x="653" d="M68 1032v273q113 0 150.5 28.5t37.5 110.5h258v-1444h-281v1053q-62 -21 -165 -21z" />
<glyph unicode="2" horiz-adv-x="1097" d="M68 0v217q0 106 37 189.5t95.5 136.5t129.5 97t142.5 80.5t130 75t95.5 94t37 124.5q0 89 -58 139.5t-138 50.5q-85 0 -141 -57t-56 -158h-274q0 216 131.5 348.5t337.5 132.5q211 0 343 -126t132 -328q0 -79 -22.5 -146.5t-60.5 -116t-87.5 -90t-104 -73t-109.5 -60.5 t-104.5 -57t-88.5 -57t-62.5 -66t-24.5 -80h645v-270h-925z" />
<glyph unicode="3" horiz-adv-x="1114" d="M68 477q46 0 140 -1t140 -1q0 -119 61.5 -174t155.5 -55q90 0 146.5 46t56.5 142q0 172 -215 172h-164v242q50 0 75.5 0.5t70.5 4t69.5 10t56 19.5t47.5 31.5t28 47.5t12 67q0 92 -55 138t-144 46q-94 0 -144.5 -59.5t-50.5 -163.5h-274q0 218 129 349.5t342 131.5 q208 0 340.5 -116.5t132.5 -292.5q0 -118 -52 -201t-143 -119q91 -27 155.5 -104.5t64.5 -200.5q0 -208 -136 -333.5t-356 -125.5q-217 0 -353 135t-136 365z" />
<glyph unicode="4" horiz-adv-x="1130" d="M47 313v258l606 873h269v-873h155v-258h-155v-313h-271v313h-604zM305 571h346v502z" />
<glyph unicode="5" horiz-adv-x="1124" d="M78 475h278q0 -223 207 -223q84 0 139.5 62t55.5 155v59q0 86 -54.5 143.5t-148.5 57.5q-40 0 -72 -10.5t-53.5 -30t-34 -36t-26.5 -40.5l-269 60l138 772h729v-270h-502q-37 -191 -53 -285q22 26 81 51t136 25q188 0 298.5 -111t110.5 -326v-63q0 -219 -133.5 -353.5 t-347.5 -134.5q-212 0 -345.5 139t-133.5 359z" />
<glyph unicode="6" horiz-adv-x="1093" d="M68 473v66q0 211 116 434l248 471h301l-239 -440q41 8 94 8q207 0 322.5 -121t115.5 -336v-82q0 -221 -132.5 -358.5t-346.5 -137.5q-216 0 -347.5 137t-131.5 359zM348 492q0 -137 51 -190.5t148 -53.5q93 0 145.5 54t52.5 190v73q0 114 -53.5 165.5t-144.5 51.5 q-199 0 -199 -217v-73z" />
<glyph unicode="7" horiz-adv-x="960" d="M68 1171v273h866l-453 -1444h-280l377 1171h-510z" />
<glyph unicode="8" horiz-adv-x="1114" d="M68 387q0 116 52.5 199t149.5 123q-178 93 -178 333q0 185 128.5 293.5t336.5 108.5q209 0 338 -109t129 -295q0 -242 -176 -331q98 -40 149.5 -123t51.5 -199q0 -188 -137.5 -300t-354.5 -112q-219 0 -354 111.5t-135 300.5zM354 416q0 -185 203 -185q205 0 205 193 q0 182 -176 182h-66q-77 0 -121.5 -46t-44.5 -144zM365 1006q0 -55 14 -92.5t41.5 -56.5t60 -26.5t76.5 -7.5q93 0 144 39t51 139q0 187 -195 187q-192 0 -192 -182z" />
<glyph unicode="9" horiz-adv-x="1093" d="M68 889v80q0 223 132 360t347 137q216 0 347.5 -137t131.5 -360v-70q0 -206 -115 -424l-249 -475h-302q118 215 238 440q-44 -8 -100 -8q-204 0 -317 122t-113 335zM348 879q0 -215 199 -215q198 0 198 215v92q0 225 -198 225q-199 0 -199 -225v-92z" />
<glyph unicode=":" horiz-adv-x="493" d="M78 145q0 68 47.5 116t114.5 48t114 -48t47 -116q0 -67 -46.5 -114t-114.5 -47t-115 47t-47 114zM78 997q0 68 47.5 116t114.5 48t114 -48t47 -116q0 -66 -47 -113.5t-114 -47.5t-114.5 47.5t-47.5 113.5z" />
<glyph unicode=";" horiz-adv-x="550" d="M-14 -264l184 663h289l-269 -663h-204zM119 997q0 68 47.5 116t114.5 48t115 -48t48 -116q0 -66 -48 -113.5t-115 -47.5t-114.5 47.5t-47.5 113.5z" />
<glyph unicode="&#x3c;" horiz-adv-x="903" d="M88 461v254l729 315v-258q-200 -74 -487 -186l487 -185v-256q-76 33 -333 144t-396 172z" />
<glyph unicode="=" horiz-adv-x="1032" d="M88 391v244h803v-244h-803zM88 813v244h803v-244h-803z" />
<glyph unicode="&#x3e;" horiz-adv-x="903" d="M88 145v256l481 185l-481 186v258l729 -313v-254q-366 -159 -729 -318z" />
<glyph unicode="?" horiz-adv-x="1015" d="M27 989q0 228 125.5 354.5t345.5 126.5q207 0 339 -113.5t132 -281.5q0 -72 -16.5 -130.5t-45 -97t-65 -69t-77 -52.5t-81 -41.5t-77 -41.5t-65 -47.5t-45 -64t-16.5 -87.5h-75q-25 80 -25 134q0 57 17 102.5t44.5 75t60.5 55t66.5 47.5t61 46.5t44.5 59.5t17 78 q0 76 -54 119t-140 43q-197 0 -197 -215h-274zM283 145q0 68 48 116t115 48t114.5 -48t47.5 -116q0 -67 -47 -113t-115 -46t-115.5 46t-47.5 113z" />
<glyph unicode="@" horiz-adv-x="1288" d="M109 528v383q0 257 148.5 406t391.5 149q242 0 387.5 -148.5t145.5 -406.5v-389q0 -69 -17.5 -119t-43 -76.5t-68 -41.5t-78.5 -19t-88 -4h-123v86q-16 -33 -61.5 -64.5t-118.5 -31.5q-120 0 -178 75t-58 248v308q0 154 62.5 228.5t173.5 74.5q73 0 119 -32.5t61 -66.5 v89h178v-807q74 0 105.5 31.5t31.5 121.5v389q0 211 -117 332t-313 121q-197 0 -317.5 -121t-120.5 -332v-383q0 -212 129.5 -328t357.5 -116h377v-102h-377q-276 0 -432.5 143.5t-156.5 402.5zM541 567q0 -149 106 -149q107 0 107 149v303q0 71 -28 109.5t-79 38.5 q-106 0 -106 -148v-303z" />
<glyph unicode="A" horiz-adv-x="1144" d="M6 0l420 1444h305l414 -1444h-285l-76 285h-415l-78 -285h-285zM428 528h297l-145 566z" />
<glyph unicode="B" horiz-adv-x="1136" d="M129 0v1444h438q220 0 347.5 -99.5t127.5 -293.5v-21q0 -227 -180 -305q195 -85 195 -311v-19q0 -194 -128 -294.5t-347 -100.5h-453zM410 268h161q45 0 79 7t64.5 24t47 51.5t16.5 85.5v23q0 44 -16.5 75.5t-45.5 48.5t-61.5 24t-72.5 7h-172v-346zM410 834h172 q182 0 182 163v23q0 154 -207 154h-147v-340z" />
<glyph unicode="C" horiz-adv-x="1114" d="M88 477v496q0 220 133.5 358.5t345.5 138.5q235 0 358.5 -144.5t123.5 -401.5h-281v20q0 256 -201 256q-38 0 -71.5 -11.5t-63 -35.5t-46.5 -68t-17 -104v-512q0 -117 57.5 -169t140.5 -52q103 0 152 61t49 213v19h281q0 -564 -482 -564q-212 0 -345.5 139.5 t-133.5 360.5z" />
<glyph unicode="D" horiz-adv-x="1177" d="M129 0v1444h471q220 0 350.5 -136t130.5 -393v-380q0 -255 -131 -395t-350 -140h-471zM410 268h157q44 0 77 7.5t64 29.5t51 58.5t32 97t12 143.5v281q0 64 -10 112t-34.5 90t-73 64.5t-118.5 22.5h-157v-906z" />
<glyph unicode="E" horiz-adv-x="1011" d="M129 0v1444h803v-273h-522v-327h387v-246h-387v-328h522v-270h-803z" />
<glyph unicode="F" horiz-adv-x="960" d="M129 4v1440h772v-273h-491v-327h358v-246h-358v-594h-281z" />
<glyph unicode="G" horiz-adv-x="1132" d="M88 477v494q0 221 133 360t344 139q210 0 343.5 -135.5t138.5 -351.5h-281q0 111 -52 164t-145 53q-99 0 -149.5 -59.5t-50.5 -198.5v-475q0 -108 51.5 -162.5t144.5 -54.5q87 0 144 52.5t57 164.5v25h-199v247h480v-262q0 -221 -134 -359t-348 -138q-211 0 -344 138 t-133 359z" />
<glyph unicode="H" horiz-adv-x="1204" d="M129 0v1444h281v-600h376v600h281v-1444h-281v598h-376v-598h-281z" />
<glyph unicode="I" horiz-adv-x="559" d="M139 0v1444h281v-1444h-281z" />
<glyph unicode="J" horiz-adv-x="1114" d="M47 475v64h281v-74q0 -62 16.5 -106t45 -67.5t59.5 -33.5t67 -10q67 0 107 25t62 95.5t22 194.5v881h280v-969q0 -222 -129 -360t-342 -138q-211 0 -340 138t-129 360z" />
<glyph unicode="K" horiz-adv-x="1165" d="M129 0v1444h281v-594h104l285 594h315l-358 -717l358 -727h-315l-285 600h-104v-600h-281z" />
<glyph unicode="L" horiz-adv-x="913" d="M129 0v1444h281v-1174h475v-270h-756z" />
<glyph unicode="M" horiz-adv-x="1454" d="M129 0v1444h279l319 -801l320 801h278v-1444h-281v813l-223 -543h-190l-221 539v-809h-281z" />
<glyph unicode="N" horiz-adv-x="1222" d="M129 0v1444h264l420 -840v836h283v-1440h-265l-421 836v-836h-281z" />
<glyph unicode="O" d="M88 477v492q0 221 133.5 361t345.5 140t347 -140t135 -361v-492q0 -220 -135 -358.5t-347 -138.5t-345.5 138.5t-133.5 358.5zM369 469q0 -114 56 -166.5t142 -52.5q84 0 142.5 51.5t58.5 165.5v512q0 114 -56.5 167.5t-144.5 53.5q-84 0 -141 -52t-57 -167v-512z" />
<glyph unicode="P" horiz-adv-x="1138" d="M129 0v1444h449q218 0 351.5 -138t133.5 -386v-58q0 -248 -133 -383t-352 -135h-168v-344h-281zM410 612h139q49 0 89.5 12.5t75 40t53.5 78.5t19 121v54q0 76 -19.5 129t-55 79.5t-74.5 37t-88 10.5h-139v-562z" />
<glyph unicode="Q" d="M88 469v500q0 221 134 361t345 140q214 0 348 -140t134 -361v-500q0 -177 -90 -304t-242 -167l168 -277h-291l-150 271q-162 35 -259 163.5t-97 313.5zM369 508q0 -145 52 -204.5t146 -59.5q201 0 201 262v430q0 264 -201 264q-84 0 -141 -52t-57 -167v-473z" />
<glyph unicode="R" horiz-adv-x="1138" d="M129 0v1444h455q219 0 349 -137t130 -385v-41q0 -164 -66 -276.5t-184 -166.5l242 -438h-307l-193 373h-145v-373h-281zM410 641h139q49 0 89 12t74 38.5t53 75.5t19 118v41q0 138 -63.5 193t-171.5 55h-139v-533z" />
<glyph unicode="S" horiz-adv-x="1093" d="M57 475h279q0 -121 56 -179t153 -58q93 0 149 44t56 130q0 44 -23 77t-62 55t-89.5 40.5t-106.5 37t-112 40t-106.5 54.5t-89.5 75.5t-62 108t-23 147.5q0 196 127.5 309.5t341.5 113.5q209 0 338 -131t129 -352h-277q0 113 -50.5 169t-143.5 56q-90 0 -138.5 -42 t-48.5 -123q0 -58 37.5 -98t97 -63.5t131.5 -45t144 -52t131.5 -73t97 -119.5t37.5 -182q0 -204 -132.5 -321.5t-352.5 -117.5q-219 0 -353.5 135.5t-134.5 364.5z" />
<glyph unicode="T" horiz-adv-x="927" d="M37 1171v273h876v-273h-299v-1171h-280v1171h-297z" />
<glyph unicode="U" horiz-adv-x="1175" d="M109 477v967h280v-977q0 -113 55 -166t144 -53q86 0 143 53.5t57 165.5v977h281v-967q0 -228 -133 -362.5t-348 -134.5t-347 134t-132 363z" />
<glyph unicode="V" horiz-adv-x="1054" d="M6 1444h287l244 -1000l245 1000h287l-385 -1444h-295q-112 417 -383 1444z" />
<glyph unicode="W" horiz-adv-x="1642" d="M6 1444h281l209 -942q46 214 200 942h250q121 -571 201 -942l209 942h282l-335 -1444h-287l-195 915l-194 -915h-287z" />
<glyph unicode="X" horiz-adv-x="1103" d="M6 0l389 741l-370 703h303l219 -436l219 436h301l-371 -703l391 -741h-299l-241 481l-242 -481h-299z" />
<glyph unicode="Y" horiz-adv-x="1095" d="M6 1444h293l252 -610l256 610h291l-408 -924v-520h-280v520z" />
<glyph unicode="Z" horiz-adv-x="940" d="M27 0q82 194 244.5 585t244.5 586h-440v273h827l-491 -1174h483v-270h-868z" />
<glyph unicode="[" horiz-adv-x="706" d="M129 -102v1654h469v-241h-203v-1174h203v-239h-469z" />
<glyph unicode="\" horiz-adv-x="792" d="M6 1554h270q124 -480 433 -1658h-273z" />
<glyph unicode="]" horiz-adv-x="706" d="M68 -102v239h202v1174h-202v241h469v-1654h-469z" />
<glyph unicode="^" horiz-adv-x="1015" d="M68 721l313 723h254q53 -120 157.5 -361.5t157.5 -361.5h-258q-80 212 -186 485l-184 -485h-254z" />
<glyph unicode="_" horiz-adv-x="1069" d="M68 -133h933v-211h-933v211z" />
<glyph unicode="`" d="M231 1511h287l131 -321h-207z" />
<glyph unicode="a" horiz-adv-x="1046" d="M78 408v333q0 215 91 319.5t249 104.5q77 0 140.5 -29.5t92 -59.5t39.5 -54v129h250v-1151h-250v127q-7 -17 -26.5 -39.5t-51.5 -47.5t-83.5 -41.5t-110.5 -16.5q-160 0 -250 106t-90 320zM346 428q0 -104 44 -155.5t120 -51.5t120 52t44 155v297q0 100 -45 150.5 t-119 50.5q-76 0 -120 -51.5t-44 -153.5v-293z" />
<glyph unicode="b" horiz-adv-x="1046" d="M109 0v1546h266v-499q3 5 9.5 12.5t29.5 27.5t50 35.5t72 28t95 12.5q161 0 251.5 -104.5t90.5 -317.5v-335q0 -214 -90.5 -319t-251.5 -105q-58 0 -109.5 16.5t-84 41t-52.5 46.5t-27 39v-125h-249zM375 426q0 -102 44.5 -154.5t119.5 -52.5q76 0 121 52.5t45 154.5v293 q0 101 -44.5 153t-121.5 52q-74 0 -119 -50t-45 -149v-299z" />
<glyph unicode="c" horiz-adv-x="1005" d="M78 430v279q0 212 114 334t318 122q211 0 320.5 -123t109.5 -350h-266q0 230 -164 230q-166 0 -166 -199v-270q0 -232 166 -232q75 0 119.5 56t44.5 169h266q0 -221 -110 -343.5t-320 -122.5q-204 0 -318 120.5t-114 329.5z" />
<glyph unicode="d" horiz-adv-x="1046" d="M78 406v335q0 213 90.5 317.5t251.5 104.5q50 0 94 -12t72 -29t48.5 -34t29.5 -29l8 -12v499h270v-1546h-250v125q-7 -17 -26.5 -39t-52 -46.5t-84 -41t-109.5 -16.5q-161 0 -251.5 105t-90.5 319zM346 426q0 -102 45 -154.5t121 -52.5q75 0 119.5 52.5t44.5 154.5v299 q0 99 -45 149t-119 50q-77 0 -121.5 -52t-44.5 -153v-293z" />
<glyph unicode="e" horiz-adv-x="1005" d="M78 430v281q0 212 114 333t318 121q203 0 316.5 -116.5t113.5 -327.5v-225h-596v-125q0 -74 50 -123t116 -49q71 0 117.5 38.5t46.5 106.5v25h266v-9q0 -163 -116.5 -271.5t-313.5 -108.5q-204 0 -318 120.5t-114 329.5zM344 684h330v55q0 110 -42 157.5t-122 47.5 q-75 0 -120.5 -44t-45.5 -132v-84z" />
<glyph unicode="f" horiz-adv-x="690" d="M47 913v236h115q2 217 84.5 310t283.5 93q34 0 103 -6v-231q-37 6 -67 6q-62 0 -92 -25q-44 -38 -44 -147h201v-236h-201v-913h-268v913h-115z" />
<glyph unicode="g" horiz-adv-x="1046" d="M78 408v333q0 211 88.5 316.5t243.5 105.5q110 0 186 -47.5t94 -93.5v129h250v-1165q0 -108 -20.5 -184t-69 -132t-132 -83t-206.5 -27q-97 0 -171.5 19t-121 51t-75.5 77.5t-40.5 93t-11.5 103.5h258q0 -62 41.5 -98.5t120.5 -36.5q162 0 162 157v201q-6 -14 -16.5 -30 t-32.5 -37t-49 -37t-68.5 -27.5t-89.5 -11.5q-160 0 -250 105t-90 319zM346 459q0 -129 39 -185.5t125 -56.5q82 0 123 56t41 182v252q0 116 -42 167.5t-122 51.5q-76 0 -120 -51.5t-44 -153.5v-262z" />
<glyph unicode="h" horiz-adv-x="1056" d="M109 0v1546h266v-506q3 5 10 13.5t31 30t51.5 38t74 30t97.5 13.5q73 0 132 -21.5t105 -68.5t71.5 -129t25.5 -194v-752h-268v649q0 150 -34 212.5t-132 62.5q-85 0 -124.5 -49t-39.5 -158v-717h-266z" />
<glyph unicode="i" horiz-adv-x="499" d="M88 1452q0 68 47.5 116t114.5 48t114.5 -48t47.5 -116t-47 -115t-115 -47t-115 47t-47 115zM115 0v1151h266v-1151h-266z" />
<glyph unicode="j" horiz-adv-x="505" d="M-20 -190q74 0 107.5 37.5t33.5 136.5v1167h266v-1112q0 -241 -95.5 -356t-311.5 -115v242zM92 1452q0 68 47.5 116t114.5 48q68 0 116 -48t48 -116q0 -67 -48 -114.5t-116 -47.5t-115 47t-47 115z" />
<glyph unicode="k" horiz-adv-x="1050" d="M109 0v1546h268v-862h90l229 467h303l-311 -573q231 -430 313 -578h-303q-143 281 -231 463h-90v-463h-268z" />
<glyph unicode="l" horiz-adv-x="505" d="M119 0v1546h268v-1546h-268z" />
<glyph unicode="m" horiz-adv-x="1542" d="M109 0v1151h249v-119q7 16 22 34.5t42.5 42t73.5 39t100 15.5q191 0 270 -157q32 62 104.5 109.5t178.5 47.5q305 0 305 -403v-760h-268v770q0 81 -37.5 119.5t-97.5 38.5q-58 0 -97 -38.5t-39 -115.5v-774h-268v770q0 81 -37 119.5t-100 38.5q-58 0 -96.5 -38 t-38.5 -116v-774h-266z" />
<glyph unicode="n" horiz-adv-x="1056" d="M109 0v1151h249v-131q7 17 27 38.5t52.5 46.5t84 41.5t109.5 16.5q161 0 251.5 -104.5t90.5 -317.5v-741h-268v721q0 203 -166 203q-83 0 -123.5 -49.5t-40.5 -157.5v-717h-266z" />
<glyph unicode="o" horiz-adv-x="1013" d="M76 436v277q0 207 114 328.5t318 121.5q200 0 315 -122t115 -328v-277q0 -212 -114.5 -334t-315.5 -122q-206 0 -319 121t-113 335zM342 397q0 -88 46 -133t120 -45q71 0 117.5 45t46.5 133v348q0 88 -46 132.5t-118 44.5q-75 0 -120.5 -44.5t-45.5 -132.5v-348z" />
<glyph unicode="p" horiz-adv-x="1056" d="M109 -395v1546h249v-125q7 17 27 39t52.5 46.5t84 41t109.5 16.5q161 0 251.5 -105t90.5 -319v-335q0 -213 -90.5 -317.5t-251.5 -104.5q-50 0 -94 12t-72 29t-48.5 34t-28.5 29l-9 12v-499h-270zM375 426q0 -99 45 -149t119 -50q77 0 121.5 52t44.5 153v293 q0 102 -45 154.5t-121 52.5q-75 0 -119.5 -52.5t-44.5 -154.5v-299z" />
<glyph unicode="q" horiz-adv-x="1056" d="M86 410v335q0 214 90.5 319t251.5 105q58 0 109.5 -16.5t84 -41t52 -46.5t26.5 -39v125h250v-1546h-270v499q-3 -5 -9 -12.5t-28.5 -27.5t-49 -35.5t-71 -28t-94.5 -12.5q-161 0 -251.5 104.5t-90.5 317.5zM354 432q0 -101 44.5 -153t121.5 -52q74 0 119 50t45 149v299 q0 102 -44.5 154.5t-119.5 52.5q-76 0 -121 -52.5t-45 -154.5v-293z" />
<glyph unicode="r" horiz-adv-x="722" d="M109 0v1151h249v-156q24 91 112 136q68 35 146 35q23 0 46 -3v-264q-22 2 -43 2q-117 0 -175 -58q-68 -68 -69 -210v-633h-266z" />
<glyph unicode="s" horiz-adv-x="995" d="M57 381h267q0 -91 48.5 -135.5t129.5 -44.5q74 0 118 35.5t44 87.5q0 40 -32 69.5t-83 48.5t-113 37.5t-124 45t-113 63t-83 98.5t-32 145q0 159 107.5 249.5t297.5 90.5q209 0 320 -99t111 -294h-261q0 91 -43.5 127.5t-123.5 36.5q-69 0 -107.5 -29.5t-38.5 -81.5 q0 -43 32.5 -74.5t84 -51.5t114 -38.5t125 -44.5t114 -61.5t84 -96.5t32.5 -142q0 -168 -111 -258.5t-319 -90.5q-206 0 -325.5 108.5t-119.5 299.5z" />
<glyph unicode="t" horiz-adv-x="710" d="M47 1130q113 0 157 56t44 198h178v-235h211v-236h-211v-493q0 -107 29 -151t120 -44q41 0 66 4v-239q-53 -6 -96 -6q-91 0 -158.5 19.5t-110.5 54.5t-69 91.5t-36.5 122.5t-10.5 154v487h-111q0 37 -1 108.5t-1 108.5z" />
<glyph unicode="u" horiz-adv-x="1036" d="M88 424v727h266v-766q0 -82 50.5 -124t115.5 -42q60 0 112 42t52 124v766h268v-727q0 -204 -117 -324t-315 -120q-203 0 -317.5 119.5t-114.5 324.5z" />
<glyph unicode="v" horiz-adv-x="985" d="M6 1151h287l201 -760l198 760h287l-344 -1151h-285z" />
<glyph unicode="w" horiz-adv-x="1466" d="M6 1151h275l168 -723l167 723h234l168 -725l172 725h272l-301 -1151h-266l-162 696l-162 -696h-266z" />
<glyph unicode="x" horiz-adv-x="1058" d="M16 0l357 592l-336 559h301l182 -334l180 334h304l-336 -559l356 -592h-299l-207 371l-205 -371h-297z" />
<glyph unicode="y" horiz-adv-x="983" d="M6 1151h287l203 -745l202 745h285q-92 -299 -261.5 -850t-213.5 -694h-272l122 395z" />
<glyph unicode="z" horiz-adv-x="862" d="M27 0l424 909h-383v242h759l-424 -911h410v-240h-786z" />
<glyph unicode="{" horiz-adv-x="710" d="M47 608v226q71 0 96 26.5t25 91.5v129q0 250 100 360.5t338 110.5v-241q-103 0 -137.5 -48t-34.5 -159q0 -73 -6 -130.5t-20.5 -112t-43 -91t-69.5 -51.5q68 -28 103.5 -114.5t35.5 -198.5q0 -54 2.5 -89.5t12.5 -73.5t28 -60t50.5 -36t78.5 -14v-239 q-239 0 -338.5 109.5t-99.5 358.5v130q0 64 -24.5 90t-96.5 26z" />
<glyph unicode="|" horiz-adv-x="505" d="M119 -104v1658h268v-1658h-268z" />
<glyph unicode="}" horiz-adv-x="710" d="M68 -106v239q84 0 122 27.5t46 91.5l6 162q7 251 137 305q-66 24 -102.5 112.5t-36.5 206.5q0 36 -1 61.5t-5 56.5t-11 51.5t-20 41.5t-31 33.5t-44 20.5t-60 8v241q238 0 338 -110.5t100 -360.5v-129q0 -66 24 -92t97 -26v-226q-69 0 -95 -27.5t-26 -88.5v-130 q0 -249 -99.5 -358.5t-338.5 -109.5z" />
<glyph unicode="&#xa1;" horiz-adv-x="479" d="M78 141q0 21 2.5 48.5t5.5 47.5t9 57.5t9 57.5l99 645h69l101 -645q24 -164 24 -211q0 -68 -43 -112.5t-116 -44.5q-72 0 -116 45t-44 112zM78 1296q0 66 47.5 114t114.5 48t114 -48t47 -114q0 -68 -47 -115.5t-114 -47.5t-114.5 47.5t-47.5 115.5z" />
<glyph unicode="&#xa2;" horiz-adv-x="1005" d="M78 430v279q0 164 69 275.5t197 152.5v172h105v-148q36 4 61 4q21 0 57 -4v148h105v-170q268 -85 268 -449h-266q0 230 -164 230q-166 0 -166 -199v-270q0 -232 166 -232q75 0 119.5 56t44.5 169h266q0 -358 -268 -442v-168h-105v150q-36 -4 -57 -4q-25 0 -61 4v-150 h-105v170q-129 43 -197.5 153.5t-68.5 272.5z" />
<glyph unicode="&#xa3;" horiz-adv-x="1095" d="M88 0v270h346q-4 64 -26 119t-60 117h-260v104h209q-42 66 -72 119h-137v105h96q-37 105 -37 198q0 200 124.5 319t324.5 119q196 0 319 -132t123 -349h-270q0 111 -45.5 163t-126.5 52q-77 0 -124.5 -43t-47.5 -133q0 -94 49 -194h330v-105h-283q8 -16 30.5 -56 t33.5 -63h219v-104h-182q66 -129 71 -236h314v-270h-918z" />
<glyph unicode="&#xa5;" horiz-adv-x="1095" d="M6 1444h293l252 -613l256 613h291l-408 -924h162v-102h-162v-121h160v-102h-160v-195h-280v195h-162v102h162v121h-162v102h162z" />
<glyph unicode="&#xa6;" horiz-adv-x="505" d="M119 -104v722h268v-722h-268zM119 840v714h268v-714h-268z" />
<glyph unicode="&#xa8;" d="M217 1307q0 51 36 88t87 37q52 0 88.5 -37t36.5 -88q0 -53 -36.5 -89t-88.5 -36q-51 0 -87 36.5t-36 88.5zM590 1307q0 51 36 88t87 37q52 0 88.5 -37t36.5 -88q0 -53 -36 -89t-89 -36q-51 0 -87 36.5t-36 88.5z" />
<glyph unicode="&#xa9;" horiz-adv-x="1288" d="M109 528v383q0 257 148.5 406t391.5 149q242 0 387.5 -148.5t145.5 -406.5v-383q0 -257 -145 -401.5t-388 -144.5q-244 0 -392 145t-148 401zM211 528q0 -210 120 -327t318 -117q197 0 313.5 117t116.5 327v383q0 211 -117 332t-313 121q-197 0 -317.5 -121t-120.5 -332 v-383zM340 539v358q0 154 80.5 241t228.5 87q149 0 229 -83.5t80 -236.5v-86h-196v105q0 65 -32.5 94t-80.5 29q-55 0 -83.5 -31t-28.5 -105v-395q0 -58 32 -87.5t80 -29.5q113 0 113 115v113h196v-95q0 -150 -80 -231.5t-229 -81.5q-148 0 -228.5 85.5t-80.5 234.5z" />
<glyph unicode="&#xaa;" horiz-adv-x="1056" d="M88 905v131q0 212 86.5 317t239.5 105q111 0 185.5 -48t90.5 -93v129h250v-948h-250v127q-8 -19 -26.5 -41t-50 -47t-81.5 -41.5t-108 -16.5q-160 0 -248 105.5t-88 320.5zM354 145q0 68 47.5 116t114.5 48q68 0 116 -48.5t48 -115.5t-48 -114t-116 -47t-115 47t-47 114z M356 905q0 -95 42.5 -140.5t117.5 -45.5q73 0 115.5 46t42.5 140v135q0 91 -43 136t-115 45q-75 0 -117.5 -45t-42.5 -140v-131z" />
<glyph unicode="&#xab;" horiz-adv-x="1058" d="M68 586l266 415h205l-185 -415l185 -416h-205zM518 586l268 415h205l-186 -415l186 -416h-205z" />
<glyph unicode="&#xad;" horiz-adv-x="681" d="M68 477v211h542v-211h-542z" />
<glyph unicode="&#xae;" horiz-adv-x="1288" d="M109 528v383q0 257 148.5 406t391.5 149q242 0 387.5 -148.5t145.5 -406.5v-383q0 -257 -145 -401.5t-388 -144.5q-244 0 -392 145t-148 401zM211 528q0 -210 120 -327t318 -117q197 0 313.5 117t116.5 327v383q0 211 -117 332t-313 121q-197 0 -317.5 -121t-120.5 -332 v-383zM360 268v910h267q158 0 241.5 -90t83.5 -259v-12q0 -115 -41 -185.5t-131 -105.5q19 -30 60 -91.5t69 -105t37 -61.5h-211l-127 215h-59v-215h-189zM549 662h63q76 0 114 34.5t38 124.5v10q0 91 -38 128.5t-114 37.5h-63v-335z" />
<glyph unicode="&#xaf;" d="M274 1196v190h580v-190h-580z" />
<glyph unicode="&#xb0;" horiz-adv-x="798" d="M88 1126v11q0 152 82 239.5t231 87.5q147 0 230.5 -87.5t83.5 -239.5v-11q0 -155 -83 -243t-231 -88q-150 0 -231.5 87.5t-81.5 243.5zM283 1098q0 -63 32 -95t86 -32q51 0 85 32.5t34 94.5v63q0 63 -33 95t-86 32q-54 0 -86 -32t-32 -95v-63z" />
<glyph unicode="&#xb4;" d="M422 1190l129 321h289l-213 -321h-205z" />
<glyph unicode="&#xb6;" horiz-adv-x="772" d="M98 1014v203q0 63 14 106.5t34.5 66.5t57 35.5t67.5 15.5t81 3h301v-1546h-252v880h-98q-95 0 -150 59.5t-55 176.5z" />
<glyph unicode="&#xb7;" horiz-adv-x="479" d="M78 584q0 68 47.5 116t114.5 48t114 -48t47 -116q0 -66 -47 -114t-114 -48t-114.5 48t-47.5 114z" />
<glyph unicode="&#xb8;" d="M274 -350l218 401h159l-90 -401h-287z" />
<glyph unicode="&#xba;" horiz-adv-x="1015" d="M78 932v82q0 208 111.5 329t314.5 121q201 0 313.5 -121t112.5 -329v-82q0 -213 -112.5 -335t-313.5 -122q-204 0 -315 121.5t-111 335.5zM342 145q0 68 47.5 116t114.5 48q68 0 116 -48.5t48 -115.5t-48 -114t-116 -47t-115 47t-47 114zM344 893q0 -89 43.5 -133.5 t116.5 -44.5q71 0 115.5 45t44.5 133v156q0 87 -44 131.5t-116 44.5q-74 0 -117 -44t-43 -132v-156z" />
<glyph unicode="&#xbb;" horiz-adv-x="1058" d="M68 170l184 416l-184 415h204l269 -415l-269 -416h-204zM518 170l184 416l-184 415h205l268 -415l-268 -416h-205z" />
<glyph unicode="&#xbf;" horiz-adv-x="1015" d="M47 377q0 72 16.5 130.5t44.5 97t64.5 68.5t77 52t80.5 41.5t76.5 41.5t64.5 48t44.5 64.5t16.5 87.5h76q23 -76 23 -140q0 -56 -17 -100.5t-44.5 -73.5t-60.5 -54t-65.5 -47t-60 -46.5t-44.5 -59t-17 -77.5q0 -76 54 -119t140 -43q88 0 142.5 53.5t54.5 159.5h276 q0 -227 -126.5 -353t-346.5 -126q-206 0 -337.5 113.5t-131.5 281.5zM408 1307q0 67 47 114t114 47q66 0 114 -47t48 -114t-48 -115.5t-114 -48.5q-67 0 -114 48t-47 116z" />
<glyph unicode="&#xc0;" horiz-adv-x="1144" d="M6 0l420 1444h305l414 -1444h-285l-76 285h-415l-78 -285h-285zM264 1921h287l131 -322h-207zM428 528h297l-145 566z" />
<glyph unicode="&#xc1;" horiz-adv-x="1144" d="M6 0l420 1444h305l414 -1444h-285l-76 285h-415l-78 -285h-285zM428 528h297l-145 566zM459 1599l129 322h289l-213 -322h-205z" />
<glyph unicode="&#xc2;" horiz-adv-x="1144" d="M6 0l420 1444h305l414 -1444h-285l-76 285h-415l-78 -285h-285zM236 1561l208 317h261l208 -317h-208l-132 153l-131 -153h-206zM428 528h297l-145 566z" />
<glyph unicode="&#xc3;" horiz-adv-x="1144" d="M6 0l420 1444h305l414 -1444h-285l-76 285h-415l-78 -285h-285zM233 1593v215q96 56 185 56q55 0 153.5 -29t151.5 -29q98 0 192 60v-213q-91 -64 -182 -64q-55 0 -153 34t-156 34q-93 0 -191 -64zM428 528h297l-145 566z" />
<glyph unicode="&#xc4;" horiz-adv-x="1144" d="M6 0l420 1444h305l414 -1444h-285l-76 285h-415l-78 -285h-285zM270 1716q0 51 36 88t87 37q52 0 88.5 -37t36.5 -88q0 -52 -36 -88.5t-89 -36.5q-51 0 -87 36.5t-36 88.5zM428 528h297l-145 566zM643 1716q0 51 36 88t87 37q52 0 88.5 -37t36.5 -88q0 -52 -36.5 -88.5 t-88.5 -36.5q-51 0 -87 36.5t-36 88.5z" />
<glyph unicode="&#xc5;" horiz-adv-x="1144" d="M6 0l420 1444h305l414 -1444h-285l-76 285h-415l-78 -285h-285zM397 1778q0 76 54 130t131 54q76 0 130 -54t54 -130q0 -77 -54 -132t-130 -55t-130.5 55t-54.5 132zM428 528h297l-145 566zM524 1780q0 -25 17.5 -42.5t42.5 -17.5q23 0 39 17.5t16 42.5t-16 41t-39 16 q-25 0 -42.5 -16.5t-17.5 -40.5z" />
<glyph unicode="&#xc6;" horiz-adv-x="1757" d="M6 0l789 1444h882v-273h-522v-327h387v-246h-387v-328h522v-270h-803v285h-403l-152 -285h-313zM586 528h286v539z" />
<glyph unicode="&#xc7;" horiz-adv-x="1114" d="M88 477v496q0 220 133.5 358.5t345.5 138.5q235 0 358.5 -144.5t123.5 -401.5h-281v20q0 256 -201 256q-38 0 -71.5 -11.5t-63 -35.5t-46.5 -68t-17 -104v-512q0 -117 57.5 -169t140.5 -52q103 0 152 61t49 213v19h281q0 -508 -394 -557l-71 -332h-289l178 334 q-174 29 -279.5 162.5t-105.5 328.5z" />
<glyph unicode="&#xc8;" horiz-adv-x="1011" d="M129 0v1444h803v-273h-522v-327h387v-246h-387v-328h522v-270h-803zM233 1921h287l131 -322h-207z" />
<glyph unicode="&#xc9;" horiz-adv-x="1011" d="M129 0v1444h803v-273h-522v-327h387v-246h-387v-328h522v-270h-803zM373 1599l129 322h289l-213 -322h-205z" />
<glyph unicode="&#xca;" horiz-adv-x="1011" d="M129 0v1444h803v-273h-522v-327h387v-246h-387v-328h522v-270h-803zM188 1602l209 317h260l209 -317h-209l-131 153l-131 -153h-207z" />
<glyph unicode="&#xcb;" horiz-adv-x="1011" d="M129 0v1444h803v-273h-522v-327h387v-246h-387v-328h522v-270h-803zM213 1716q0 51 36 88t87 37q52 0 88.5 -37t36.5 -88q0 -52 -36.5 -88.5t-88.5 -36.5q-51 0 -87 36.5t-36 88.5zM586 1716q0 51 36 88t87 37q52 0 88.5 -37t36.5 -88q0 -52 -36 -88.5t-89 -36.5 q-51 0 -87 36.5t-36 88.5z" />
<glyph unicode="&#xcc;" horiz-adv-x="542" d="M-20 1921h286l131 -322h-207zM139 0v1444h281v-1444h-281z" />
<glyph unicode="&#xcd;" horiz-adv-x="561" d="M135 1599l129 322h289l-213 -322h-205zM139 0v1444h281v-1444h-281z" />
<glyph unicode="&#xce;" horiz-adv-x="544" d="M-31 1602l209 317h260l209 -317h-209l-131 153l-131 -153h-207zM139 0v1444h281v-1444h-281z" />
<glyph unicode="&#xcf;" horiz-adv-x="536" d="M-27 1716q0 51 36 88t87 37q52 0 88.5 -37t36.5 -88q0 -52 -36.5 -88.5t-88.5 -36.5q-51 0 -87 36.5t-36 88.5zM139 0v1444h281v-1444h-281zM346 1716q0 51 36 88t87 37q52 0 88.5 -37t36.5 -88q0 -52 -36 -88.5t-89 -36.5q-51 0 -87 36.5t-36 88.5z" />
<glyph unicode="&#xd0;" horiz-adv-x="1171" d="M0 676v100h123v668h471q220 0 350.5 -136t130.5 -393v-380q0 -255 -131 -395t-350 -140h-471v676h-123zM403 268h158q44 0 77 7.5t64 29.5t51 58.5t32 97t12 143.5v281q0 64 -10 112t-34.5 90t-73 64.5t-118.5 22.5h-158v-398h158v-100h-158v-408z" />
<glyph unicode="&#xd1;" horiz-adv-x="1224" d="M129 0v1444h264l420 -840v836h283v-1440h-265l-421 836v-836h-281zM272 1593v215q96 56 185 56q55 0 153.5 -29t151.5 -29q98 0 192 60v-213q-91 -64 -182 -64q-55 0 -153 34t-156 34q-93 0 -191 -64z" />
<glyph unicode="&#xd2;" d="M88 477v492q0 221 133.5 361t345.5 140t347 -140t135 -361v-492q0 -220 -135 -358.5t-347 -138.5t-345.5 138.5t-133.5 358.5zM252 1921h287l131 -322h-207zM369 469q0 -114 56 -166.5t142 -52.5q84 0 142.5 51.5t58.5 165.5v512q0 114 -56.5 167.5t-144.5 53.5 q-84 0 -141 -52t-57 -167v-512z" />
<glyph unicode="&#xd3;" horiz-adv-x="1122" d="M88 477v492q0 221 133.5 361t345.5 140t347 -140t135 -361v-492q0 -220 -135 -358.5t-347 -138.5t-345.5 138.5t-133.5 358.5zM369 469q0 -114 56 -166.5t142 -52.5q84 0 142.5 51.5t58.5 165.5v512q0 114 -56.5 167.5t-144.5 53.5q-84 0 -141 -52t-57 -167v-512z M440 1599l129 322h289l-213 -322h-205z" />
<glyph unicode="&#xd4;" d="M88 477v492q0 221 133.5 361t345.5 140t347 -140t135 -361v-492q0 -220 -135 -358.5t-347 -138.5t-345.5 138.5t-133.5 358.5zM229 1602l209 317h260l209 -317h-209l-131 153l-131 -153h-207zM369 469q0 -114 56 -166.5t142 -52.5q84 0 142.5 51.5t58.5 165.5v512 q0 114 -56.5 167.5t-144.5 53.5q-84 0 -141 -52t-57 -167v-512z" />
<glyph unicode="&#xd5;" d="M88 477v492q0 221 133.5 361t345.5 140t347 -140t135 -361v-492q0 -220 -135 -358.5t-347 -138.5t-345.5 138.5t-133.5 358.5zM229 1593v215q96 56 185 56q55 0 153.5 -29t151.5 -29q98 0 192 60v-213q-91 -64 -182 -64q-55 0 -153 34t-156 34q-93 0 -191 -64zM369 469 q0 -114 56 -166.5t142 -52.5q84 0 142.5 51.5t58.5 165.5v512q0 114 -56.5 167.5t-144.5 53.5q-84 0 -141 -52t-57 -167v-512z" />
<glyph unicode="&#xd6;" d="M88 477v492q0 221 133.5 361t345.5 140t347 -140t135 -361v-492q0 -220 -135 -358.5t-347 -138.5t-345.5 138.5t-133.5 358.5zM256 1716q0 51 36 88t87 37q52 0 88.5 -37t36.5 -88q0 -52 -36 -88.5t-89 -36.5q-51 0 -87 36.5t-36 88.5zM369 469q0 -114 56 -166.5 t142 -52.5q84 0 142.5 51.5t58.5 165.5v512q0 114 -56.5 167.5t-144.5 53.5q-84 0 -141 -52t-57 -167v-512zM629 1716q0 51 36 88t87 37q52 0 88.5 -37t36.5 -88q0 -52 -36.5 -88.5t-88.5 -36.5q-51 0 -87 36.5t-36 88.5z" />
<glyph unicode="&#xd7;" horiz-adv-x="1060" d="M88 489l238 238q-27 27 -75.5 75t-88 87.5t-74.5 75.5l172 174l238 -240l237 240q19 -19 54 -54.5t64.5 -65t55.5 -54.5l-239 -238l239 -238l-172 -174l-239 238l-238 -238z" />
<glyph unicode="&#xd8;" d="M88 477v492q0 221 133.5 361t345.5 140q111 0 193 -36l59 182h103l-76 -230q96 -65 149.5 -173.5t53.5 -243.5v-492q0 -220 -135 -358.5t-347 -138.5q-92 0 -174 28l-55 -168h-107l70 213q-100 64 -156.5 174.5t-56.5 249.5zM369 469q0 -78 28 -129l277 834 q-48 26 -107 26q-84 0 -141 -52t-57 -167v-512zM477 266q39 -16 90 -16q84 0 142.5 51.5t58.5 165.5v512q0 59 -20 111z" />
<glyph unicode="&#xd9;" horiz-adv-x="1175" d="M109 477v967h280v-977q0 -113 55 -166t144 -53q86 0 143 53.5t57 165.5v977h281v-967q0 -228 -133 -362.5t-348 -134.5t-347 134t-132 363zM295 1921h287l131 -322h-207z" />
<glyph unicode="&#xda;" horiz-adv-x="1175" d="M109 477v967h280v-977q0 -113 55 -166t144 -53q86 0 143 53.5t57 165.5v977h281v-967q0 -228 -133 -362.5t-348 -134.5t-347 134t-132 363zM492 1599l129 322h288l-213 -322h-204z" />
<glyph unicode="&#xdb;" horiz-adv-x="1175" d="M109 477v967h280v-977q0 -113 55 -166t144 -53q86 0 143 53.5t57 165.5v977h281v-967q0 -228 -133 -362.5t-348 -134.5t-347 134t-132 363zM250 1602l209 317h260l209 -317h-209l-131 153l-131 -153h-207z" />
<glyph unicode="&#xdc;" horiz-adv-x="1175" d="M109 477v967h280v-977q0 -113 55 -166t144 -53q86 0 143 53.5t57 165.5v977h281v-967q0 -228 -133 -362.5t-348 -134.5t-347 134t-132 363zM281 1716q0 51 35.5 88t86.5 37q52 0 88.5 -37t36.5 -88q0 -52 -36 -88.5t-89 -36.5q-51 0 -86.5 36.5t-35.5 88.5zM653 1716 q0 51 36 88t87 37q52 0 88.5 -37t36.5 -88q0 -52 -36.5 -88.5t-88.5 -36.5q-51 0 -87 36.5t-36 88.5z" />
<glyph unicode="&#xdd;" horiz-adv-x="1097" d="M6 1444h293l252 -610l256 610h291l-408 -924v-520h-280v520zM451 1599l129 322h288l-213 -322h-204z" />
<glyph unicode="&#xde;" horiz-adv-x="1138" d="M129 0v1444h281v-162h176q216 0 346.5 -138t130.5 -386v-58q0 -249 -130 -383.5t-347 -134.5h-176v-182h-281zM410 451h139q49 0 89.5 12.5t75 39.5t53.5 78t19 121v54q0 65 -16 112.5t-40.5 75t-63.5 43t-76 20.5t-86 5h-94v-561z" />
<glyph unicode="&#xdf;" horiz-adv-x="1136" d="M41 913v236h106q0 109 16.5 180t60.5 124t122.5 76t200.5 23h24q404 0 404 -274v-21q0 -103 -43.5 -155t-140.5 -66q270 -45 270 -389v-203q0 -44 -2.5 -81.5t-8.5 -77t-16.5 -72.5t-25.5 -65t-36.5 -57t-48.5 -46.5t-63 -35t-79 -21t-96.5 -6.5t-115.5 10v233 q71 -7 117 8t68.5 52.5t30.5 82.5t8 115v86q0 54 -1 87t-5.5 74.5t-13.5 65t-25.5 49t-40 38.5t-58 21.5t-80.5 8.5v236q79 0 107.5 20.5t28.5 57.5v14q0 37 -28.5 58.5t-105.5 21.5h-32q-39 0 -64.5 -12.5t-38 -37.5t-16.5 -53t-4 -69v-1149h-269v913h-106z" />
<glyph unicode="&#xe0;" horiz-adv-x="1046" d="M78 408v333q0 215 91 319.5t249 104.5q77 0 140.5 -29.5t92 -59.5t39.5 -54v129h250v-1151h-250v127q-7 -17 -26.5 -39.5t-51.5 -47.5t-83.5 -41.5t-110.5 -16.5q-160 0 -250 106t-90 320zM213 1614h287l131 -322h-207zM346 428q0 -104 44 -155.5t120 -51.5t120 52 t44 155v297q0 100 -45 150.5t-119 50.5q-76 0 -120 -51.5t-44 -153.5v-293z" />
<glyph unicode="&#xe1;" horiz-adv-x="1046" d="M78 408v333q0 215 91 319.5t249 104.5q77 0 140.5 -29.5t92 -59.5t39.5 -54v129h250v-1151h-250v127q-7 -17 -26.5 -39.5t-51.5 -47.5t-83.5 -41.5t-110.5 -16.5q-160 0 -250 106t-90 320zM346 428q0 -104 44 -155.5t120 -51.5t120 52t44 155v297q0 100 -45 150.5 t-119 50.5q-76 0 -120 -51.5t-44 -153.5v-293zM367 1294l129 322h288l-213 -322h-204z" />
<glyph unicode="&#xe2;" horiz-adv-x="1046" d="M78 408v333q0 215 91 319.5t249 104.5q77 0 140.5 -29.5t92 -59.5t39.5 -54v129h250v-1151h-250v127q-7 -17 -26.5 -39.5t-51.5 -47.5t-83.5 -41.5t-110.5 -16.5q-160 0 -250 106t-90 320zM186 1294l209 318h260l209 -318h-209l-131 154l-131 -154h-207zM346 428 q0 -104 44 -155.5t120 -51.5t120 52t44 155v297q0 100 -45 150.5t-119 50.5q-76 0 -120 -51.5t-44 -153.5v-293z" />
<glyph unicode="&#xe3;" horiz-adv-x="1046" d="M78 408v333q0 215 91 319.5t249 104.5q77 0 140.5 -29.5t92 -59.5t39.5 -54v129h250v-1151h-250v127q-7 -17 -26.5 -39.5t-51.5 -47.5t-83.5 -41.5t-110.5 -16.5q-160 0 -250 106t-90 320zM186 1280v215q94 55 185 55q55 0 153.5 -28.5t151.5 -28.5q99 0 192 59v-213 q-90 -63 -182 -63q-55 0 -153 33.5t-156 33.5q-94 0 -191 -63zM346 428q0 -104 44 -155.5t120 -51.5t120 52t44 155v297q0 100 -45 150.5t-119 50.5q-76 0 -120 -51.5t-44 -153.5v-293z" />
<glyph unicode="&#xe4;" horiz-adv-x="1046" d="M78 408v333q0 215 91 319.5t249 104.5q77 0 140.5 -29.5t92 -59.5t39.5 -54v129h250v-1151h-250v127q-7 -17 -26.5 -39.5t-51.5 -47.5t-83.5 -41.5t-110.5 -16.5q-160 0 -250 106t-90 320zM223 1409q0 51 36 88t87 37q52 0 88.5 -37t36.5 -88q0 -53 -36.5 -89t-88.5 -36 q-51 0 -87 36.5t-36 88.5zM346 428q0 -104 44 -155.5t120 -51.5t120 52t44 155v297q0 100 -45 150.5t-119 50.5q-76 0 -120 -51.5t-44 -153.5v-293zM596 1409q0 51 36 88t87 37q52 0 88.5 -37t36.5 -88q0 -53 -36 -89t-89 -36q-51 0 -87 36.5t-36 88.5z" />
<glyph unicode="&#xe5;" horiz-adv-x="1046" d="M78 408v333q0 215 91 319.5t249 104.5q77 0 140.5 -29.5t92 -59.5t39.5 -54v129h250v-1151h-250v127q-7 -17 -26.5 -39.5t-51.5 -47.5t-83.5 -41.5t-110.5 -16.5q-160 0 -250 106t-90 320zM346 428q0 -104 44 -155.5t120 -51.5t120 52t44 155v297q0 100 -45 150.5 t-119 50.5q-76 0 -120 -51.5t-44 -153.5v-293zM360 1470q0 76 54 130.5t131 54.5q76 0 130 -54t54 -131t-54 -131.5t-130 -54.5t-130.5 54.5t-54.5 131.5zM487 1473q0 -25 17.5 -42.5t42.5 -17.5q23 0 39 17.5t16 42.5t-16 41t-39 16q-25 0 -42.5 -16.5t-17.5 -40.5z" />
<glyph unicode="&#xe6;" horiz-adv-x="1603" d="M78 408v333q0 215 91 319.5t249 104.5q77 0 140.5 -29.5t92 -59.5t39.5 -54v129h250v-129q7 17 26 38.5t50.5 46.5t82 41.5t107.5 16.5q153 0 242.5 -105t89.5 -319v-245h-596v-125q0 -74 50 -123t116 -49q71 0 117.5 38.5t46.5 106.5v25h266v-9q0 -186 -84.5 -279 t-241.5 -93q-59 0 -110.5 16.5t-83.5 41.5t-51.5 47.5t-26.5 39.5v-127v-6h-250v127q-7 -17 -26.5 -39.5t-51.5 -47.5t-83.5 -41.5t-110.5 -16.5q-160 0 -250 106t-90 320zM346 428q0 -104 44 -155.5t120 -51.5t120 52t44 155v297q0 100 -45 150.5t-119 50.5 q-76 0 -120 -51.5t-44 -153.5v-293zM942 684h330v55q0 110 -42 157.5t-122 47.5q-75 0 -120.5 -44t-45.5 -132v-84z" />
<glyph unicode="&#xe7;" horiz-adv-x="1005" d="M78 430v279q0 212 114 334t318 122q211 0 320.5 -123t109.5 -350h-266q0 230 -164 230q-166 0 -166 -199v-270q0 -232 166 -232q75 0 119.5 56t44.5 169h266q0 -195 -87 -314.5t-253 -145.5l-76 -336h-286l182 338q-164 25 -253 141t-89 301z" />
<glyph unicode="&#xe8;" horiz-adv-x="1005" d="M78 430v281q0 212 114 333t318 121q203 0 316.5 -116.5t113.5 -327.5v-225h-596v-125q0 -74 50 -123t116 -49q71 0 117.5 38.5t46.5 106.5v25h266v-9q0 -163 -116.5 -271.5t-313.5 -108.5q-204 0 -318 120.5t-114 329.5zM186 1616h287l131 -322h-207zM344 684h330v55 q0 110 -42 157.5t-122 47.5q-75 0 -120.5 -44t-45.5 -132v-84z" />
<glyph unicode="&#xe9;" horiz-adv-x="1005" d="M78 430v281q0 212 114 333t318 121q203 0 316.5 -116.5t113.5 -327.5v-225h-596v-125q0 -74 50 -123t116 -49q71 0 117.5 38.5t46.5 106.5v25h266v-9q0 -163 -116.5 -271.5t-313.5 -108.5q-204 0 -318 120.5t-114 329.5zM344 684h330v55q0 110 -42 157.5t-122 47.5 q-75 0 -120.5 -44t-45.5 -132v-84zM375 1294l129 322h289l-213 -322h-205z" />
<glyph unicode="&#xea;" horiz-adv-x="1005" d="M78 430v281q0 212 114 333t318 121q203 0 316.5 -116.5t113.5 -327.5v-225h-596v-125q0 -74 50 -123t116 -49q71 0 117.5 38.5t46.5 106.5v25h266v-9q0 -163 -116.5 -271.5t-313.5 -108.5q-204 0 -318 120.5t-114 329.5zM166 1292l209 318h260l209 -318h-209l-131 154 l-131 -154h-207zM344 684h330v55q0 110 -42 157.5t-122 47.5q-75 0 -120.5 -44t-45.5 -132v-84z" />
<glyph unicode="&#xeb;" horiz-adv-x="1005" d="M78 430v281q0 212 114 333t318 121q203 0 316.5 -116.5t113.5 -327.5v-225h-596v-125q0 -74 50 -123t116 -49q71 0 117.5 38.5t46.5 106.5v25h266v-9q0 -163 -116.5 -271.5t-313.5 -108.5q-204 0 -318 120.5t-114 329.5zM205 1411q0 51 36 88t87 37q52 0 88.5 -37 t36.5 -88q0 -53 -36.5 -89t-88.5 -36q-51 0 -87 36.5t-36 88.5zM344 684h330v55q0 110 -42 157.5t-122 47.5q-75 0 -120.5 -44t-45.5 -132v-84zM578 1411q0 51 35.5 88t86.5 37q52 0 88.5 -37t36.5 -88q0 -53 -36.5 -89t-88.5 -36q-51 0 -86.5 36.5t-35.5 88.5z" />
<glyph unicode="&#xec;" horiz-adv-x="495" d="M-47 1616h287l131 -322h-207zM115 0v1151h266v-1151h-266z" />
<glyph unicode="&#xed;" horiz-adv-x="503" d="M115 0v1151h266v-1151h-266zM119 1294l129 322h289l-213 -322h-205z" />
<glyph unicode="&#xee;" horiz-adv-x="497" d="M-90 1296l209 318h260l209 -318h-209l-131 154l-131 -154h-207zM115 0v1151h266v-1151h-266z" />
<glyph unicode="&#xef;" horiz-adv-x="487" d="M-63 1411q0 51 35.5 88t86.5 37q52 0 88.5 -37t36.5 -88q0 -53 -36 -89t-89 -36q-51 0 -86.5 36.5t-35.5 88.5zM115 0v1151h266v-1151h-266zM309 1411q0 51 36 88t87 37q52 0 88.5 -37t36.5 -88q0 -53 -36.5 -89t-88.5 -36q-51 0 -87 36.5t-36 88.5z" />
<glyph unicode="&#xf0;" horiz-adv-x="1011" d="M72 444v265q0 108 34 197.5t96 150.5t157 87.5t210 8.5l-61 117h-186v102h135l-97 182h265l88 -182h176v-102h-125l74 -148q98 -198 98 -420v-258q0 -211 -118.5 -332.5t-313.5 -121.5q-194 0 -313 121.5t-119 332.5zM344 397q0 -88 46 -133t120 -45q71 0 117.5 45 t46.5 133v348q0 88 -46 132.5t-118 44.5q-75 0 -120.5 -44.5t-45.5 -132.5v-348z" />
<glyph unicode="&#xf1;" horiz-adv-x="1056" d="M109 0v1151h249v-131q7 17 27 38.5t52.5 46.5t84 41.5t109.5 16.5q161 0 251.5 -104.5t90.5 -317.5v-741h-268v721q0 203 -166 203q-83 0 -123.5 -49.5t-40.5 -157.5v-717h-266zM193 1290v215q96 56 184 56q55 0 153.5 -29t151.5 -29q98 0 192 60v-213q-91 -64 -182 -64 q-55 0 -153 34t-156 34q-92 0 -190 -64z" />
<glyph unicode="&#xf2;" horiz-adv-x="1015" d="M78 436v277q0 207 114 328.5t318 121.5q200 0 315 -122t115 -328v-277q0 -212 -114.5 -334t-315.5 -122q-206 0 -319 121t-113 335zM182 1599h287l131 -321h-207zM344 397q0 -88 46 -133t120 -45q71 0 117.5 45t46.5 133v348q0 88 -46 132.5t-118 44.5 q-75 0 -120.5 -44.5t-45.5 -132.5v-348z" />
<glyph unicode="&#xf3;" horiz-adv-x="1015" d="M78 436v277q0 207 114 328.5t318 121.5q200 0 315 -122t115 -328v-277q0 -212 -114.5 -334t-315.5 -122q-206 0 -319 121t-113 335zM344 397q0 -88 46 -133t120 -45q71 0 117.5 45t46.5 133v348q0 88 -46 132.5t-118 44.5q-75 0 -120.5 -44.5t-45.5 -132.5v-348z M389 1292l129 322h289l-213 -322h-205z" />
<glyph unicode="&#xf4;" horiz-adv-x="1015" d="M78 436v277q0 207 114 328.5t318 121.5q200 0 315 -122t115 -328v-277q0 -212 -114.5 -334t-315.5 -122q-206 0 -319 121t-113 335zM172 1292l209 318h260l209 -318h-209l-131 154l-131 -154h-207zM344 397q0 -88 46 -133t120 -45q71 0 117.5 45t46.5 133v348 q0 88 -46 132.5t-118 44.5q-75 0 -120.5 -44.5t-45.5 -132.5v-348z" />
<glyph unicode="&#xf5;" horiz-adv-x="1015" d="M78 436v277q0 207 114 328.5t318 121.5q200 0 315 -122t115 -328v-277q0 -212 -114.5 -334t-315.5 -122q-206 0 -319 121t-113 335zM170 1282v215q94 55 184 55q55 0 153.5 -28.5t151.5 -28.5q100 0 193 59v-213q-90 -63 -182 -63q-55 0 -153.5 34t-156.5 34 q-92 0 -190 -64zM344 397q0 -88 46 -133t120 -45q71 0 117.5 45t46.5 133v348q0 88 -46 132.5t-118 44.5q-75 0 -120.5 -44.5t-45.5 -132.5v-348z" />
<glyph unicode="&#xf6;" horiz-adv-x="1015" d="M78 436v277q0 207 114 328.5t318 121.5q200 0 315 -122t115 -328v-277q0 -212 -114.5 -334t-315.5 -122q-206 0 -319 121t-113 335zM199 1407q0 51 36 88t87 37q52 0 88 -37t36 -88q0 -53 -36 -89t-88 -36q-51 0 -87 36.5t-36 88.5zM344 397q0 -88 46 -133t120 -45 q71 0 117.5 45t46.5 133v348q0 88 -46 132.5t-118 44.5q-75 0 -120.5 -44.5t-45.5 -132.5v-348zM571 1407q0 51 36 88t87 37q52 0 88.5 -37t36.5 -88q0 -53 -36.5 -89t-88.5 -36q-51 0 -87 36.5t-36 88.5z" />
<glyph unicode="&#xf7;" horiz-adv-x="1032" d="M88 602v244h813v-244h-813zM340 362q0 62 43 105t104 43q60 0 104 -43.5t44 -104.5q0 -60 -44 -103.5t-104 -43.5q-61 0 -104 43.5t-43 103.5zM340 1087q0 62 43 105t104 43q60 0 104 -43.5t44 -104.5q0 -60 -44 -103.5t-104 -43.5q-61 0 -104 43.5t-43 103.5z" />
<glyph unicode="&#xf8;" horiz-adv-x="1015" d="M78 436v277q0 207 114 328.5t318 121.5q57 0 125 -14l49 160h102l-59 -195q102 -54 157.5 -157.5t55.5 -243.5v-277q0 -212 -114.5 -334t-315.5 -122q-72 0 -127 14l-47 -154h-107l62 187q-104 53 -158.5 157t-54.5 252zM344 397q0 -69 31 -114l190 630q-27 9 -55 9 q-75 0 -120.5 -44.5t-45.5 -132.5v-348zM455 225q24 -6 55 -6q71 0 117.5 45t46.5 133v348q0 60 -27 109z" />
<glyph unicode="&#xf9;" horiz-adv-x="1036" d="M88 424v727h266v-766q0 -82 50.5 -124t115.5 -42q60 0 112 42t52 124v766h268v-727q0 -204 -117 -324t-315 -120q-203 0 -317.5 119.5t-114.5 324.5zM211 1597h287l131 -321h-207z" />
<glyph unicode="&#xfa;" horiz-adv-x="1036" d="M88 424v727h266v-766q0 -82 50.5 -124t115.5 -42q60 0 112 42t52 124v766h268v-727q0 -204 -117 -324t-315 -120q-203 0 -317.5 119.5t-114.5 324.5zM418 1296l129 322h289l-213 -322h-205z" />
<glyph unicode="&#xfb;" horiz-adv-x="1036" d="M88 424v727h266v-766q0 -82 50.5 -124t115.5 -42q60 0 112 42t52 124v766h268v-727q0 -204 -117 -324t-315 -120q-203 0 -317.5 119.5t-114.5 324.5zM182 1290l209 318h260l209 -318h-209l-131 154l-131 -154h-207z" />
<glyph unicode="&#xfc;" horiz-adv-x="1036" d="M88 424v727h266v-766q0 -82 50.5 -124t115.5 -42q60 0 112 42t52 124v766h268v-727q0 -204 -117 -324t-315 -120q-203 0 -317.5 119.5t-114.5 324.5zM211 1411q0 51 36 88t87 37q52 0 88.5 -37t36.5 -88q0 -53 -36.5 -89t-88.5 -36q-51 0 -87 36.5t-36 88.5zM584 1411 q0 51 36 88t87 37q52 0 88 -37t36 -88q0 -53 -36 -89t-88 -36q-51 0 -87 36.5t-36 88.5z" />
<glyph unicode="&#xfd;" horiz-adv-x="983" d="M6 1151h287l203 -745l202 745h285q-92 -299 -261.5 -850t-213.5 -694h-272l122 395zM395 1294l129 322h289l-213 -322h-205z" />
<glyph unicode="&#xfe;" horiz-adv-x="1056" d="M109 -395v1941h266v-526q8 18 24.5 39t46 46.5t78.5 42.5t107 17q342 0 342 -458v-299q0 -213 -90.5 -318.5t-251.5 -105.5q-58 0 -107 15.5t-78.5 39t-46.5 44t-24 38.5v-516h-266zM375 428q0 -102 44.5 -153.5t119.5 -51.5q77 0 121.5 51.5t44.5 153.5v291 q0 102 -45 154.5t-121 52.5q-74 0 -119 -51.5t-45 -151.5v-295z" />
<glyph unicode="&#xff;" horiz-adv-x="983" d="M6 1151h287l203 -745l202 745h285q-92 -299 -261.5 -850t-213.5 -694h-272l122 395zM184 1405q0 51 36 88t87 37q52 0 88.5 -37t36.5 -88q0 -53 -36 -89t-89 -36q-51 0 -87 36.5t-36 88.5zM557 1405q0 51 36 88t87 37q52 0 88.5 -37t36.5 -88q0 -53 -36.5 -89t-88.5 -36 q-51 0 -87 36.5t-36 88.5z" />
<glyph unicode="&#x152;" horiz-adv-x="1652" d="M88 483v504q0 202 115 335.5t297 133.5q188 0 268 -94v82h805v-273h-524v-327h389v-246h-389v-328h524v-270h-805v74q-82 -82 -225 -82q-203 0 -329 134t-126 357zM369 467q0 -116 57.5 -167.5t140.5 -51.5q37 0 70 10.5t64 34t49 68.5t18 106v518q0 219 -201 219 q-84 0 -141 -52t-57 -167v-518z" />
<glyph unicode="&#x153;" horiz-adv-x="1607" d="M76 436v277q0 208 110.5 329t313.5 121q205 0 303 -125q98 127 311 127q202 0 312 -116t110 -328v-225h-596v-125q0 -74 50 -123t116 -49q71 0 117.5 38.5t46.5 106.5v25h266v-9q0 -164 -113 -272t-309 -108q-211 0 -309 124q-95 -124 -305 -124q-205 0 -314.5 120.5 t-109.5 335.5zM342 397q0 -88 46 -133t120 -45q71 0 117.5 45t46.5 133v348q0 88 -46 132.5t-118 44.5q-75 0 -120.5 -44.5t-45.5 -132.5v-348zM940 684h330v55q0 110 -42 157.5t-122 47.5q-75 0 -120.5 -44t-45.5 -132v-84z" />
<glyph unicode="&#x178;" horiz-adv-x="1097" d="M6 1444h293l252 -610l256 610h291l-408 -924v-520h-280v520zM242 1716q0 51 36 88t87 37q52 0 88 -37t36 -88q0 -53 -36 -89t-88 -36q-51 0 -87 36.5t-36 88.5zM614 1716q0 51 36 88t87 37q52 0 88.5 -37t36.5 -88q0 -52 -36 -88.5t-89 -36.5q-51 0 -87 36.5t-36 88.5z " />
<glyph unicode="&#x2c6;" d="M229 1192l209 317h260l209 -317h-209l-131 154l-131 -154h-207z" />
<glyph unicode="&#x2dc;" d="M225 1184v215q94 55 185 55q55 0 153.5 -28.5t151.5 -28.5q99 0 192 59v-213q-90 -63 -182 -63q-55 0 -153 33.5t-156 33.5q-94 0 -191 -63z" />
<glyph unicode="&#x2000;" horiz-adv-x="981" />
<glyph unicode="&#x2001;" horiz-adv-x="1962" />
<glyph unicode="&#x2002;" horiz-adv-x="981" />
<glyph unicode="&#x2003;" horiz-adv-x="1962" />
<glyph unicode="&#x2004;" horiz-adv-x="654" />
<glyph unicode="&#x2005;" horiz-adv-x="490" />
<glyph unicode="&#x2006;" horiz-adv-x="327" />
<glyph unicode="&#x2007;" horiz-adv-x="327" />
<glyph unicode="&#x2008;" horiz-adv-x="245" />
<glyph unicode="&#x2009;" horiz-adv-x="392" />
<glyph unicode="&#x200a;" horiz-adv-x="109" />
<glyph unicode="&#x2010;" horiz-adv-x="681" d="M68 477v211h542v-211h-542z" />
<glyph unicode="&#x2011;" horiz-adv-x="681" d="M68 477v211h542v-211h-542z" />
<glyph unicode="&#x2012;" horiz-adv-x="681" d="M68 477v211h542v-211h-542z" />
<glyph unicode="&#x2013;" horiz-adv-x="817" d="M68 477v211h682v-211h-682z" />
<glyph unicode="&#x2014;" horiz-adv-x="1069" d="M68 477v211h933v-211h-933z" />
<glyph unicode="&#x2018;" horiz-adv-x="569" d="M47 768l268 678h207q-69 -246 -186 -678h-289z" />
<glyph unicode="&#x2019;" horiz-adv-x="567" d="M47 768l184 678h289l-268 -678h-205z" />
<glyph unicode="&#x201a;" horiz-adv-x="559" d="M-14 -262l184 661h289l-269 -661h-204z" />
<glyph unicode="&#x201c;" horiz-adv-x="993" d="M47 768l268 678h207q-69 -246 -186 -678h-289zM471 768l268 678h207q-69 -246 -186 -678h-289z" />
<glyph unicode="&#x201d;" horiz-adv-x="991" d="M47 768l184 678h289l-268 -678h-205zM471 768l184 678h289l-268 -678h-205z" />
<glyph unicode="&#x201e;" horiz-adv-x="950" d="M-4 -268l184 661h289l-268 -661h-205zM420 -268l184 661h289l-268 -661h-205z" />
<glyph unicode="&#x2022;" horiz-adv-x="964" d="M88 598v12q0 191 104 302.5t291 111.5q183 0 288.5 -112t105.5 -302v-12q0 -195 -105 -306.5t-289 -111.5q-188 0 -291.5 111t-103.5 307z" />
<glyph unicode="&#x2026;" horiz-adv-x="1447" d="M78 145q0 68 47.5 116t114.5 48t114 -48t47 -116q0 -67 -46.5 -114t-114.5 -47t-115 47t-47 114zM561 145q0 68 47.5 116t114.5 48t115.5 -48.5t48.5 -115.5t-48 -114t-116 -47t-115 47t-47 114zM1044 145q0 68 47.5 116t114.5 48q68 0 116 -48.5t48 -115.5t-48 -114 t-116 -47t-115 47t-47 114z" />
<glyph unicode="&#x202f;" horiz-adv-x="392" />
<glyph unicode="&#x2039;" horiz-adv-x="606" d="M68 586l266 415h205l-185 -415l185 -416h-205z" />
<glyph unicode="&#x203a;" horiz-adv-x="606" d="M68 170l184 416l-184 415h204l267 -415l-267 -416h-204z" />
<glyph unicode="&#x205f;" horiz-adv-x="490" />
<glyph unicode="&#x20ac;" horiz-adv-x="1187" d="M47 553v104h121v119h-121v105h121v90q0 221 133.5 360t347.5 139q234 0 356.5 -153t122.5 -410h-280q0 293 -199 293q-85 0 -142.5 -54t-57.5 -167v-98h202v-105h-202v-119h202v-104h-202v-92q0 -107 50 -165t148 -58q99 0 150 66.5t51 219.5h280q0 -122 -30.5 -222.5 t-89.5 -174.5t-151 -115t-208 -41q-213 0 -347 139t-134 359v84h-121z" />
<glyph unicode="&#x2122;" horiz-adv-x="1488" d="M68 1284v160h491v-160h-164v-584h-166v584h-161zM655 700v744h166l185 -426l184 426h164v-744h-166v375l-127 -282h-113l-125 280v-373h-168z" />
<glyph unicode="&#xe000;" horiz-adv-x="1146" d="M0 0v1147h1147v-1147h-1147z" />
</font>
</defs>
</svg>
