<?xml version="1.0" standalone="no"?>
<!DOCTYPE svg PUBLIC "-//W3C//DTD SVG 1.1//EN" "http://www.w3.org/Graphics/SVG/1.1/DTD/svg11.dtd" >
<svg xmlns="http://www.w3.org/2000/svg">
<metadata></metadata>
<defs>
<font id="korolev_heavyregular" horiz-adv-x="1122" >
<font-face units-per-em="2048" ascent="1536" descent="-512" />
<missing-glyph horiz-adv-x="450" />
<glyph unicode="&#xfb01;" horiz-adv-x="1200" d="M41 844v307h106q0 85 13 152t47 127t88.5 99.5t140.5 62t201 22.5q112 0 197.5 -23t134.5 -58t79 -84t40 -94t10 -95h-342q0 3 -1 8t-8.5 17.5t-19 22t-35 17.5t-55.5 8q-48 0 -79 -10t-45.5 -32.5t-19 -47t-4.5 -63.5v-29h148v-307h-148v-844h-342v844h-106zM756 0v1151 h342v-1151h-342z" />
<glyph unicode="&#xfb02;" horiz-adv-x="1200" d="M41 844v307h106q0 107 23 187.5t76.5 144.5t149 97.5t231.5 33.5q115 0 199 -22t136 -59.5t82.5 -98t42 -127t11.5 -156.5v-1151h-342v1151q0 105 -23 143.5t-106 38.5q-45 0 -74 -10.5t-42 -33.5t-17.5 -47t-4.5 -62v-29h148v-307h-148v-844h-342v844h-106z" />
<glyph horiz-adv-x="2048" />
<glyph horiz-adv-x="2048" />
<glyph unicode="&#xd;" horiz-adv-x="2048" />
<glyph unicode=" "  horiz-adv-x="450" />
<glyph unicode="&#x09;" horiz-adv-x="450" />
<glyph unicode="&#xa0;" horiz-adv-x="450" />
<glyph unicode="!" horiz-adv-x="530" d="M61 184q0 85 59 145t144 60t145 -60t60 -145q0 -84 -60 -143t-145 -59t-144 58.5t-59 143.5zM61 1257q0 87 55 144t148 57t148 -57t55 -144q0 -27 -3.5 -55t-6.5 -43t-11.5 -50.5t-11.5 -47.5l-127 -535h-86l-127 543q-4 17 -11.5 47t-11 46t-7 42t-3.5 53z" />
<glyph unicode="&#x22;" horiz-adv-x="937" d="M41 1446h369l-58 -682h-258zM528 1446h369l-57 -682h-258z" />
<glyph unicode="#" horiz-adv-x="1570" d="M82 319v312h231l49 188h-280v311h362l113 424h326l-113 -424h199l112 424h326l-113 -424h154v-311h-236l-49 -188h285v-312h-367l-110 -423h-326l111 423h-199l-111 -423h-325l110 423h-149zM639 631h199l49 188h-199z" />
<glyph unicode="$" horiz-adv-x="1081" d="M51 463h359q0 -80 38.5 -112t92.5 -32q32 0 58.5 7t48.5 31.5t22 64.5q0 38 -26 69t-68 52.5t-96.5 46.5t-110.5 48.5t-110.5 59.5t-96.5 79t-68 109t-26 146q0 153 79.5 262t217.5 152v170h124v-146q8 0 25.5 1.5t26.5 1.5q8 0 24.5 -1.5t24.5 -1.5v146h125v-174 q133 -50 212 -168.5t83 -280.5h-355q0 76 -33 106.5t-81 30.5t-82.5 -23.5t-34.5 -74.5q0 -43 33.5 -77t87 -58.5t118 -49.5t129 -59.5t118 -79.5t87 -118.5t33.5 -167.5q0 -160 -85 -273t-230 -157v-158h-125v135q-8 0 -24.5 -1t-24.5 -1q-9 0 -26.5 1t-25.5 1v-135h-124 v162q-142 50 -226.5 174t-87.5 293z" />
<glyph unicode="%" horiz-adv-x="2330" d="M72 934v84q0 206 107 327t298 121q189 0 297.5 -121t108.5 -327v-84q0 -211 -108 -333t-298 -122q-192 0 -298.5 121.5t-106.5 333.5zM395 883q0 -53 24 -75t58 -22q33 0 58.5 22t25.5 75v180q0 53 -25 74.5t-59 21.5q-82 0 -82 -96v-180zM801 -104l409 1658h328 l-412 -1658h-325zM1446 438v84q0 207 107 328t298 121q189 0 298.5 -122t109.5 -327v-84q0 -211 -109 -332.5t-299 -121.5q-192 0 -298.5 121t-106.5 333zM1769 387q0 -53 24 -74.5t58 -21.5q33 0 58.5 21.5t25.5 74.5v180q0 53 -25 75t-59 22t-58 -22t-24 -75v-180z" />
<glyph unicode="&#x26;" horiz-adv-x="1263" d="M61 436q0 120 61.5 200t141.5 105q-82 36 -130 118t-48 198q0 176 133.5 296t337.5 120q206 0 338.5 -135t132.5 -345h-354q0 76 -33.5 106.5t-83.5 30.5q-46 0 -80.5 -28.5t-34.5 -87.5q0 -64 39 -99.5t117 -35.5h27v-312h-39q-91 0 -127.5 -30t-36.5 -95 q0 -35 14.5 -60.5t38.5 -38t48.5 -18.5t49.5 -6q31 0 58.5 7.5t54 26t42 56.5t15.5 91v379h459v-330h-104q0 -155 -41.5 -270.5t-115.5 -182t-166 -98t-204 -31.5q-249 0 -379.5 127.5t-130.5 341.5z" />
<glyph unicode="'" horiz-adv-x="450" d="M41 1446h369l-58 -682h-258z" />
<glyph unicode="(" horiz-adv-x="612" d="M82 365v720q0 248 107 358.5t362 110.5v-307q-71 0 -99 -20t-28 -68v-868q0 -50 26 -69t101 -19v-307q-255 0 -362 110.5t-107 358.5z" />
<glyph unicode=")" horiz-adv-x="612" d="M61 -104v307q75 0 101 19t26 69v868q0 48 -28 68t-99 20v307q255 0 362 -110.5t107 -358.5v-720q0 -248 -107 -358.5t-362 -110.5z" />
<glyph unicode="*" horiz-adv-x="1101" d="M106 918l222 116l-222 111l123 203l213 -134l-8 252h242l-17 -247l213 127l127 -203l-225 -109l225 -114l-127 -201l-213 131l17 -234h-242l8 234l-213 -131z" />
<glyph unicode="+" horiz-adv-x="1101" d="M82 569v312h313v313h312v-313h313v-312h-313v-313h-312v313h-313z" />
<glyph unicode="," horiz-adv-x="546" d="M-20 -268l157 663h369l-268 -663h-258z" />
<glyph unicode="-" horiz-adv-x="669" d="M61 453v268h547v-268h-547z" />
<glyph unicode="." horiz-adv-x="530" d="M61 184q0 85 59 145t144 60t145 -60t60 -145q0 -84 -60 -143t-145 -59t-144 58.5t-59 143.5z" />
<glyph unicode="/" horiz-adv-x="780" d="M0 -104l434 1658h346l-434 -1658h-346z" />
<glyph unicode="0" d="M82 475v498q0 221 133.5 360.5t345.5 139.5q211 0 345 -139.5t134 -360.5v-498q0 -220 -134 -359t-345 -139q-212 0 -345.5 139t-133.5 359zM442 463q0 -44 11 -73t30 -42t37 -17.5t41 -4.5t41 4.5t37 17.5t30 42t11 73v522q0 45 -10 74.5t-29.5 42.5t-37.5 17.5t-42 4.5 t-42 -4.5t-37.5 -17.5t-29.5 -42.5t-10 -74.5v-522z" />
<glyph unicode="1" horiz-adv-x="706" d="M61 956v349q113 0 152 28.5t39 112.5h332v-1446h-361v956h-162z" />
<glyph unicode="2" horiz-adv-x="1085" d="M61 0v283q0 100 32.5 181t84 133.5t114 95.5t125 77.5t114 68.5t84 78.5t32.5 98.5q0 60 -32 87t-83 27q-54 0 -85 -30t-31 -107h-355q0 215 131.5 347.5t337.5 132.5q210 0 342 -126t132 -327q0 -92 -32 -169.5t-83 -130.5t-113 -97.5t-124 -78t-113 -63.5t-83 -63.5 t-32 -69.5h565v-348h-928z" />
<glyph unicode="3" horiz-adv-x="1101" d="M61 475l359 -2q0 -80 38.5 -111.5t92.5 -31.5q51 0 90 28.5t39 94.5q0 64 -35.5 89t-128.5 25h-135v310q68 2 123 2q78 0 116.5 35t38.5 100q0 59 -34 87.5t-80 28.5q-50 0 -83.5 -30.5t-33.5 -106.5h-354q0 210 132.5 345t338.5 135q204 0 337.5 -120t133.5 -296 q0 -116 -48 -198t-130 -118q81 -26 141.5 -101t60.5 -194q0 -207 -136 -338t-353 -131q-216 0 -353 137t-137 361z" />
<glyph unicode="4" horiz-adv-x="1118" d="M41 279v329l543 838h346v-838h127v-329h-127v-279h-346v279h-543zM356 608h228v355z" />
<glyph unicode="5" horiz-adv-x="1112" d="M72 475h360q0 -149 119 -149q22 0 40.5 5.5t37.5 19.5t30 43t11 71v63q0 76 -32.5 105t-88.5 29q-27 0 -48.5 -8.5t-33 -20.5t-19 -24t-10.5 -21l-2 -8l-344 75l141 791h732v-348h-441l-39 -189q6 4 18 10t52 16.5t84 10.5q187 0 289 -102t102 -316v-63 q0 -219 -133 -353.5t-346 -134.5q-212 0 -345.5 139t-133.5 359z" />
<glyph unicode="6" horiz-adv-x="1081" d="M61 473v78q0 202 109 430l221 465h385l-215 -432q221 0 340 -118t119 -339v-84q0 -220 -134 -359t-345 -139q-212 0 -346 139t-134 359zM422 461q0 -44 11 -73t30 -42t37 -17.5t41 -4.5t40.5 4.5t37 17.5t30 42t10.5 73v108q0 45 -10 74.5t-29 43t-37 18t-42 4.5 t-42.5 -4.5t-37 -18t-29 -43t-10.5 -74.5v-108z" />
<glyph unicode="7" horiz-adv-x="948" d="M61 1096v350h867l-408 -1446h-360l313 1096h-412z" />
<glyph unicode="8" horiz-adv-x="1101" d="M61 393q0 110 47.5 189t133.5 123q-156 111 -156 329q0 185 129 298.5t336 113.5q206 0 335.5 -114t129.5 -300q0 -225 -158 -327q86 -44 134 -123.5t48 -188.5q-1 -188 -137.5 -303t-351.5 -115q-218 0 -354 115t-136 303zM430 432q0 -41 11 -68.5t30.5 -39.5 t37.5 -16.5t42 -4.5q23 0 41 4.5t38 16.5t31 39.5t11 68.5v12q0 42 -10 70t-29.5 40.5t-38 16.5t-43.5 4t-43.5 -4t-38 -16.5t-29.5 -40.5t-10 -70v-12zM436 981q0 -41 10.5 -68.5t29 -39.5t36 -16.5t39.5 -4.5t39.5 4.5t36 16.5t29 39.5t10.5 68.5v8q0 77 -32 103t-83 26 t-83 -26t-32 -103v-8z" />
<glyph unicode="9" horiz-adv-x="1081" d="M61 889v82q0 219 134.5 358t345.5 139q212 0 345.5 -138.5t133.5 -358.5v-76q0 -203 -107 -426l-223 -469h-385l215 432q-221 0 -340 118t-119 339zM422 877q0 -45 10.5 -74.5t29 -43t37 -18t42.5 -4.5t42 4.5t37 18t29 43t10 74.5v106q0 44 -10.5 73t-30 42t-37 17.5 t-40.5 4.5t-41 -4.5t-37 -17.5t-30 -42t-11 -73v-106z" />
<glyph unicode=":" horiz-adv-x="530" d="M61 184q0 85 59 145t144 60t145 -60t60 -145q0 -84 -60 -143t-145 -59t-144 58.5t-59 143.5zM61 958q0 85 59 145t144 60t145 -60t60 -145q0 -84 -60 -143t-145 -59t-144 58.5t-59 143.5z" />
<glyph unicode=";" horiz-adv-x="567" d="M-20 -268l157 663h369l-268 -663h-258zM82 958q0 85 59 145t144 60t144.5 -60t59.5 -145t-59.5 -143.5t-144.5 -58.5t-144 58.5t-59 143.5z" />
<glyph unicode="&#x3c;" horiz-adv-x="890" d="M82 422v332l727 274v-326l-416 -116l416 -115v-324z" />
<glyph unicode="=" horiz-adv-x="1019" d="M82 319v312h856v-312h-856zM82 819v311h856v-311h-856z" />
<glyph unicode="&#x3e;" horiz-adv-x="890" d="M82 147v324l416 115l-416 116v326l727 -274v-332z" />
<glyph unicode="?" horiz-adv-x="1003" d="M20 993q0 227 126 353.5t346 126.5q204 0 337.5 -114.5t133.5 -281.5q0 -90 -26.5 -158t-69.5 -107.5t-94.5 -68.5t-103 -49t-94.5 -40.5t-69.5 -52t-26.5 -75.5h-96q-28 76 -30.5 136t16 98.5t46.5 69t62 53t63 43t48.5 47.5t19.5 59q0 52 -32.5 75t-83.5 23 q-50 0 -83.5 -30.5t-33.5 -106.5h-355zM229 184q0 85 60 145t145 60t144 -60t59 -145t-59 -143.5t-144 -58.5t-145 59t-60 143z" />
<glyph unicode="@" horiz-adv-x="1275" d="M102 528v385q0 257 149 406t392 149q241 0 386 -148.5t145 -406.5v-393q0 -78 -18.5 -130.5t-54 -78.5t-75 -36.5t-92.5 -10.5h-215v64q-4 -7 -18.5 -22t-54.5 -34.5t-87 -19.5q-104 0 -160.5 64.5t-56.5 213.5v377q0 150 56.5 215.5t160.5 65.5q100 0 160 -80v70h225 v-787q67 0 87 24.5t20 104.5v393q0 201 -111.5 317t-296.5 116q-187 0 -302.5 -116.5t-115.5 -316.5v-385q0 -200 126 -312t341 -112h379v-122h-379q-272 0 -431 144t-159 402zM584 543q0 -68 61 -68q24 0 42 15.5t18 52.5v354q0 36 -18.5 52t-41.5 16q-26 0 -43.5 -16 t-17.5 -52v-354z" />
<glyph unicode="A" horiz-adv-x="1124" d="M0 0l373 1446h385l366 -1446h-360l-53 244h-295l-56 -244h-360zM485 557h156l-76 408z" />
<glyph unicode="B" horiz-adv-x="1124" d="M123 0v1446h446q217 0 348.5 -108t131.5 -302v-20q0 -203 -154 -291q168 -94 168 -305v-19q0 -192 -130.5 -296.5t-348.5 -104.5h-461zM483 344h86q136 0 136 100v37q0 32 -11.5 53.5t-33.5 31t-42.5 13t-48.5 3.5h-86v-238zM483 860h72q135 0 135 101v36q0 101 -135 101 h-72v-238z" />
<glyph unicode="C" horiz-adv-x="1101" d="M82 475v500q0 220 133.5 359t345.5 139t345.5 -139t133.5 -359v-66h-360v78q0 44 -11 73t-30 42t-37 17.5t-41 4.5t-41 -4.5t-37 -17.5t-30 -42t-11 -73v-524q0 -45 10 -74.5t29.5 -42.5t37.5 -17.5t42 -4.5t42 4.5t37.5 17.5t29.5 42.5t10 74.5v96h360v-84 q0 -221 -133.5 -360.5t-345.5 -139.5t-345.5 139.5t-133.5 360.5z" />
<glyph unicode="D" horiz-adv-x="1165" d="M123 0v1446h481q217 0 348 -143t131 -400v-368q0 -255 -130.5 -395t-348.5 -140h-481zM485 344h74q32 0 57 6.5t52 25t42 60t15 103.5v362q0 62 -14 103.5t-40.5 60.5t-52 26t-59.5 7h-74v-754z" />
<glyph unicode="E" horiz-adv-x="999" d="M123 0v1446h805v-350h-445v-222h338v-315h-338v-211h445v-348h-805z" />
<glyph unicode="F" horiz-adv-x="948" d="M123 0v1446h774v-350h-414v-222h314v-315h-314v-559h-360z" />
<glyph unicode="G" horiz-adv-x="1120" d="M82 475v498q0 221 133 360.5t344 139.5q209 0 341.5 -136t137.5 -352h-360q0 45 -10 74.5t-29.5 42.5t-37.5 17.5t-42 4.5t-42 -4.5t-36.5 -17.5t-28.5 -42.5t-10 -74.5v-522q0 -44 11 -73t30 -42t36.5 -17.5t39.5 -4.5q23 0 41 4.5t37 17.5t30 42t11 73v10h-117v315h477 v-313q0 -220 -133.5 -359t-345.5 -139q-211 0 -344 139t-133 359z" />
<glyph unicode="H" horiz-adv-x="1191" d="M123 0v1446h362v-572h224v572h360v-1446h-360v559h-224v-559h-362z" />
<glyph unicode="I" horiz-adv-x="606" d="M123 0v1446h360v-1446h-360z" />
<glyph unicode="J" horiz-adv-x="1101" d="M41 473v66h360v-78q0 -44 11 -73t30 -42t37 -17.5t41 -4.5t41 4.5t37 17.5t30 42t11 73v985h360v-973q0 -220 -133.5 -359t-345.5 -139t-345.5 139t-133.5 359z" />
<glyph unicode="K" horiz-adv-x="1153" d="M123 0v1446h362v-572h76l178 572h394l-259 -721l259 -725h-394l-178 559h-76v-559h-362z" />
<glyph unicode="L" horiz-adv-x="901" d="M123 0v1446h362v-1098h396v-348h-758z" />
<glyph unicode="M" horiz-adv-x="1441" d="M123 0v1446h360l238 -703l237 703h361v-1446h-361v668l-118 -377h-240l-117 371v-662h-360z" />
<glyph unicode="N" horiz-adv-x="1210" d="M123 0v1446h342l260 -641v641h362v-1446h-342l-260 637v-637h-362z" />
<glyph unicode="O" d="M82 475v498q0 221 133.5 360.5t345.5 139.5q211 0 345 -139.5t134 -360.5v-498q0 -220 -134 -359t-345 -139q-212 0 -345.5 139t-133.5 359zM442 463q0 -44 11 -73t30 -42t37 -17.5t41 -4.5t41 4.5t37 17.5t30 42t11 73v522q0 45 -10 74.5t-29.5 42.5t-37.5 17.5t-42 4.5 t-42 -4.5t-37.5 -17.5t-29.5 -42.5t-10 -74.5v-522z" />
<glyph unicode="P" horiz-adv-x="1126" d="M123 0v1446h475q216 0 346.5 -143t130.5 -400v-59q0 -256 -130 -395.5t-347 -139.5h-113v-309h-362zM485 653h66q32 0 57.5 6.5t52.5 25t42.5 60t15.5 103.5v53q0 62 -14.5 103.5t-41 60.5t-52.5 26t-60 7h-66v-445z" />
<glyph unicode="Q" d="M82 465v508q0 221 134 360.5t345 139.5q212 0 345.5 -139.5t133.5 -360.5v-508q0 -166 -78.5 -288.5t-213.5 -174.5l165 -287h-370l-142 279q-147 48 -233 173t-86 298zM442 453q0 -44 11 -73t30 -42.5t37 -18t41 -4.5t41 4.5t37 18t30 42.5t11 73v532q0 45 -10 74.5 t-29.5 42.5t-37.5 17.5t-42 4.5t-42 -4.5t-37.5 -17.5t-29.5 -42.5t-10 -74.5v-532z" />
<glyph unicode="R" horiz-adv-x="1126" d="M123 0v1446h473q217 0 348 -143t131 -400v-39q0 -306 -186 -446l174 -418h-391l-111 330h-76v-330h-362zM485 674h66q32 0 57 6.5t52 25t42 59.5t15 103v33q0 62 -14 103.5t-40.5 60.5t-52 26t-59.5 7h-66v-424z" />
<glyph unicode="S" horiz-adv-x="1081" d="M51 471h359q0 -80 38.5 -111.5t92.5 -31.5q129 0 129 102q0 36 -26 64t-68 46t-96.5 40t-110.5 43t-110.5 57t-96.5 80t-68 114t-26 158q0 200 131 320.5t342 120.5q205 0 337 -134.5t132 -345.5h-355q0 76 -33 106.5t-81 30.5t-82.5 -23.5t-34.5 -74.5q0 -43 33.5 -74.5 t87 -52.5t118 -42.5t129 -54t118 -77t87 -122t33.5 -179.5q0 -205 -136 -330t-353 -125q-215 0 -352.5 138t-137.5 358z" />
<glyph unicode="T" horiz-adv-x="915" d="M31 1096v350h854v-350h-246v-1096h-363v1096h-245z" />
<glyph unicode="U" horiz-adv-x="1163" d="M102 473v973h361v-985q0 -44 11 -73t30 -42t37 -17.5t41 -4.5t40.5 4.5t37 17.5t30 42t10.5 73v985h361v-973q0 -220 -134 -359t-345 -139q-212 0 -346 139t-134 359z" />
<glyph unicode="V" horiz-adv-x="1042" d="M0 1446h360l158 -848l158 848h360l-325 -1446h-385z" />
<glyph unicode="W" horiz-adv-x="1630" d="M0 1446h360l148 -807l147 807h320l147 -807l148 807h360l-305 -1446h-371l-139 774l-139 -774h-371z" />
<glyph unicode="X" horiz-adv-x="1091" d="M0 0l354 745l-334 701h386l141 -338l139 338h385l-334 -701l355 -745h-383l-162 387l-164 -387h-383z" />
<glyph unicode="Y" horiz-adv-x="1083" d="M0 1446h371l170 -514l174 514h368l-362 -942v-504h-361v504z" />
<glyph unicode="Z" horiz-adv-x="927" d="M20 0l386 1096h-334v350h805l-388 -1098h388v-348h-857z" />
<glyph unicode="[" horiz-adv-x="694" d="M123 -104v1658h510v-307h-168v-1044h168v-307h-510z" />
<glyph unicode="\" horiz-adv-x="780" d="M0 1554h346l434 -1658h-346z" />
<glyph unicode="]" horiz-adv-x="694" d="M61 -104v307h168v1044h-168v307h510v-1658h-510z" />
<glyph unicode="^" horiz-adv-x="1003" d="M61 719l275 727h332l274 -727h-326l-116 416l-115 -416h-324z" />
<glyph unicode="_" horiz-adv-x="1056" d="M61 -115h934v-268h-934v268z" />
<glyph unicode="`" d="M225 1507h369l113 -321h-258z" />
<glyph unicode="a" horiz-adv-x="1034" d="M72 383v383q0 399 309 399q44 0 84 -11.5t65.5 -28t44 -33t27.5 -28.5l8 -11v98h322v-1151h-322v96q-3 -5 -8.5 -12.5t-26.5 -26.5t-45 -34t-64.5 -27t-84.5 -12q-309 0 -309 399zM416 399q0 -53 26 -74.5t62 -21.5q35 0 60.5 21.5t25.5 74.5v351q0 53 -25.5 74.5 t-60.5 21.5q-36 0 -62 -21.5t-26 -74.5v-351z" />
<glyph unicode="b" horiz-adv-x="1034" d="M102 0v1554h342v-503q2 5 6.5 12.5t22 26.5t39 34t59.5 27t82 12q310 0 310 -399v-383q0 -399 -310 -399q-44 0 -84 11.5t-65.5 28t-44 33t-27.5 27.5l-8 12v-94h-322zM444 397q0 -53 25.5 -74.5t60.5 -21.5q36 0 62 21.5t26 74.5v351q0 53 -26 74.5t-62 21.5 q-35 0 -60.5 -21.5t-25.5 -74.5v-351z" />
<glyph unicode="c" horiz-adv-x="993" d="M72 428v283q0 212 113.5 333t316.5 121t316.5 -116t113.5 -326v-39h-342v80q0 94 -88 94t-88 -94v-381q0 -53 26 -74.5t62 -21.5q35 0 61.5 21.5t26.5 74.5v70h342v-37q0 -205 -113.5 -320.5t-316.5 -115.5q-202 0 -316 120.5t-114 327.5z" />
<glyph unicode="d" horiz-adv-x="1034" d="M72 381v383q0 399 309 399q44 0 82 -11.5t60.5 -28t38.5 -33t22 -28.5l6 -11v503h342v-1554h-322v94q-3 -5 -8.5 -12.5t-26.5 -26.5t-45 -34t-64.5 -27t-84.5 -12q-309 0 -309 399zM416 397q0 -53 26 -74.5t62 -21.5q35 0 60.5 21.5t25.5 74.5v351q0 53 -25.5 74.5 t-60.5 21.5q-36 0 -62 -21.5t-26 -74.5v-351z" />
<glyph unicode="e" horiz-adv-x="993" d="M72 428v283q0 212 113.5 333t316.5 121t316.5 -116t113.5 -326v-252h-518v-121q0 -50 26 -71t62 -21q34 0 61 18.5t27 59.5v29h342v-9q0 -162 -116.5 -269t-313.5 -107q-202 0 -316 120.5t-114 327.5zM414 707h176v81q0 53 -26 74t-62 21q-88 0 -88 -95v-81z" />
<glyph unicode="f" horiz-adv-x="698" d="M41 844v307h106q0 240 115 335q91 74 282 74q53 0 113 -6v-299q-30 6 -55 6q-36 0 -64 -11q-49 -21 -49 -83v-16h168v-307h-168v-844h-342v844h-106z" />
<glyph unicode="g" horiz-adv-x="1034" d="M72 383v383q0 399 309 399q44 0 84 -11.5t65.5 -28t44 -33t27.5 -28.5l8 -11v98h322v-1171q0 -107 -20.5 -182.5t-68.5 -131.5t-132 -83t-207 -27q-119 0 -203.5 27t-130 76t-65 105.5t-19.5 126.5v7h332v-7q0 -71 86 -71t86 82v194q-2 -5 -6.5 -12.5t-22 -26.5t-39 -34 t-59.5 -27t-82 -12q-309 0 -309 399zM416 399q0 -53 26 -74.5t62 -21.5q35 0 60.5 21.5t25.5 74.5v351q0 53 -25.5 74.5t-60.5 21.5q-36 0 -62 -21.5t-26 -74.5v-351z" />
<glyph unicode="h" horiz-adv-x="1044" d="M102 0v1554h342v-503q30 48 88.5 81t133.5 33q70 0 121 -18t92.5 -61.5t62.5 -124t21 -197.5v-764h-345v748q0 53 -26 74.5t-62 21.5q-35 0 -60.5 -21.5t-25.5 -74.5v-748h-342z" />
<glyph unicode="i" horiz-adv-x="550" d="M72 1466q0 85 59 145t143 60q85 0 145 -60t60 -145q0 -84 -60 -143t-145 -59t-143.5 58.5t-58.5 143.5zM102 0v1151h342v-1151h-342z" />
<glyph unicode="j" horiz-adv-x="555" d="M20 -127q86 0 86 88v1190h343v-1116q0 -469 -429 -469v307zM76 1466q0 85 59 145t144 60t144.5 -60t59.5 -145t-59.5 -143.5t-144.5 -58.5t-144 58.5t-59 143.5z" />
<glyph unicode="k" horiz-adv-x="1038" d="M102 0v1554h344v-841h70l131 438h377l-219 -573l219 -578h-377l-131 430h-70v-430h-344z" />
<glyph unicode="l" horiz-adv-x="550" d="M102 0v1554h347v-1554h-347z" />
<glyph unicode="m" horiz-adv-x="1529" d="M102 0v1151h322v-100q2 5 7 12.5t23 26.5t40 34t60.5 27t82.5 12q176 0 254 -133q96 133 256 133q145 0 223 -92.5t78 -306.5v-764h-344v748q0 96 -80 96q-31 0 -54.5 -22.5t-23.5 -73.5v-748h-344v748q0 96 -80 96q-78 0 -78 -96v-748h-342z" />
<glyph unicode="n" horiz-adv-x="1044" d="M102 0v1151h322v-100q3 5 8.5 12.5t26.5 26.5t45 34t64.5 27t84.5 12q310 0 310 -399v-764h-345v748q0 53 -26 74.5t-62 21.5q-35 0 -60.5 -21.5t-25.5 -74.5v-748h-342z" />
<glyph unicode="o" horiz-adv-x="1003" d="M72 434v281q0 206 113.5 327t316.5 121q200 0 315 -121.5t115 -326.5v-281q0 -211 -114.5 -332.5t-315.5 -121.5q-204 0 -317 121t-113 333zM414 383q0 -53 26 -74.5t62 -21.5q35 0 61.5 21.5t26.5 74.5v377q0 53 -26 74.5t-62 21.5q-88 0 -88 -96v-377z" />
<glyph unicode="p" horiz-adv-x="1044" d="M102 -403v1554h322v-98q3 5 8.5 12.5t26.5 26.5t45 34t64.5 27t84.5 12q310 0 310 -399v-383q0 -399 -310 -399q-44 0 -82 11.5t-60.5 28t-38.5 33t-22 27.5l-6 12v-499h-342zM444 399q0 -53 25.5 -74.5t60.5 -21.5q36 0 62 21.5t26 74.5v351q0 53 -26 74.5t-62 21.5 q-35 0 -60.5 -21.5t-25.5 -74.5v-351z" />
<glyph unicode="q" horiz-adv-x="1044" d="M82 383v383q0 399 309 399q44 0 84 -11.5t65.5 -28t44.5 -33t27 -28.5l9 -11v98h321v-1554h-342v499q-2 -5 -6.5 -12.5t-22 -26.5t-39 -34t-59.5 -27t-82 -12q-309 0 -309 399zM426 399q0 -53 26 -74.5t62 -21.5q35 0 60.5 21.5t25.5 74.5v351q0 53 -25.5 74.5 t-60.5 21.5q-36 0 -62 -21.5t-26 -74.5v-351z" />
<glyph unicode="r" horiz-adv-x="737" d="M102 0v1151h322v-100q2 6 7 15t25.5 31.5t47.5 38.5t78 26q28 5 58 4q26 0 54 -3v-340q-24 2 -46 2q-93 0 -143 -41q-61 -51 -61 -184v-600h-342z" />
<glyph unicode="s" horiz-adv-x="983" d="M51 375h342q0 -113 105 -113q36 0 63 18t27 54q0 30 -28.5 54.5t-74 43t-100.5 38.5t-110 48.5t-100.5 65.5t-74 97t-28.5 136q0 162 109.5 258t297.5 96q211 0 325 -97t114 -290h-338q0 57 -29 82t-66 25q-32 0 -53.5 -18.5t-21.5 -49.5q0 -32 29 -58t75 -46 t101.5 -40.5t111 -49.5t101.5 -66t75 -96.5t29 -134.5q0 -173 -113 -266t-321 -93q-207 0 -327 106t-120 296z" />
<glyph unicode="t" horiz-adv-x="698" d="M41 844v286q124 0 167.5 56t43.5 205h237v-240h168v-307h-168v-459q-1 -61 39 -83q22 -13 62 -12q29 0 67 7v-307q-54 -5 -102 -5q-77 -1 -138 13q-100 22 -158.5 81t-85 143.5t-26.5 201.5v420h-106z" />
<glyph unicode="u" horiz-adv-x="1024" d="M82 434v717h342v-768q0 -53 26 -74.5t62 -21.5q35 0 61.5 21.5t26.5 74.5v768h342v-717q0 -211 -114.5 -332.5t-315.5 -121.5q-204 0 -317 121t-113 333z" />
<glyph unicode="v" horiz-adv-x="972" d="M0 1151h360l127 -647l123 647h363l-303 -1151h-369z" />
<glyph unicode="w" horiz-adv-x="1454" d="M0 1151h346l115 -596l117 596h299l116 -596l117 596h344l-274 -1151h-344l-109 573l-109 -573h-344z" />
<glyph unicode="x" horiz-adv-x="1046" d="M10 0l324 592l-305 559h379l114 -260l115 260h381l-305 -559l323 -592h-379l-137 301l-133 -301h-377z" />
<glyph unicode="y" horiz-adv-x="970" d="M0 1151h360l127 -623l123 623h361l-422 -1554h-344l108 403z" />
<glyph unicode="z" horiz-adv-x="849" d="M20 0l324 844h-270v307h735l-324 -844h318v-307h-783z" />
<glyph unicode="{" horiz-adv-x="698" d="M41 580v286q75 0 101 19t26 69v131q0 248 107 358.5t362 110.5v-307q-71 0 -99 -20t-28 -68v-131q0 -114 -43 -199.5t-119 -109.5q76 -24 119 -106.5t43 -194.5v-131q0 -48 28 -68t99 -20v-308q-255 0 -362 110.5t-107 358.5v132q0 50 -26 69t-101 19z" />
<glyph unicode="|" horiz-adv-x="550" d="M102 -104v1658h347v-1658h-347z" />
<glyph unicode="}" horiz-adv-x="698" d="M61 -109v308q71 0 99 20t28 68v131q0 112 43 194.5t119 106.5q-76 24 -119 109.5t-43 199.5v131q0 48 -28 68t-99 20v307q255 0 362 -110.5t107 -358.5v-131q0 -50 26 -69t101 -19v-286q-75 0 -101 -19t-26 -69v-132q0 -248 -107 -358.5t-362 -110.5z" />
<glyph unicode="&#xa1;" horiz-adv-x="530" d="M61 182q0 27 3.5 55.5t6.5 43t12 51t11 47.5l127 534h86l127 -542q4 -16 11.5 -47t11 -47t7 -42t3.5 -53q0 -87 -55 -143.5t-148 -56.5t-148 56.5t-55 143.5zM61 1255q0 85 59 144t144 59t145 -59t60 -144t-60 -144.5t-145 -59.5t-144 59.5t-59 144.5z" />
<glyph unicode="&#xa2;" horiz-adv-x="993" d="M72 428v283q0 160 65.5 270t188.5 154v172h125v-144q8 0 25 1t26 1q8 0 24.5 -1t24.5 -1v144h125v-170q123 -43 189.5 -149.5t66.5 -264.5v-39h-342v80q0 94 -88 94t-88 -94v-381q0 -53 26 -74.5t62 -21.5q35 0 61.5 21.5t26.5 74.5v70h342v-37q0 -157 -66.5 -263 t-189.5 -147v-172h-125v148q-8 0 -24.5 -1t-24.5 -1q-9 0 -26 1t-25 1v-148h-125v174q-123 46 -188.5 154.5t-65.5 265.5z" />
<glyph unicode="&#xa3;" horiz-adv-x="1083" d="M82 0v348h276q-8 73 -36 156h-240v125h184q-33 60 -51 100h-133v125h86q-29 92 -29 180q0 199 124.5 319t320.5 120q192 0 315 -132.5t123 -347.5h-348q0 80 -22.5 108.5t-67.5 28.5q-43 0 -66.5 -21.5t-23.5 -80.5q0 -77 41 -174h290v-125h-235q25 -58 39 -100h196v-125 h-159q16 -76 22 -156h301v-348h-907z" />
<glyph unicode="&#xa5;" horiz-adv-x="1083" d="M0 1446h371l170 -514l174 514h368l-362 -942v-2h149v-125h-149v-101h149v-124h-149v-152h-361v152h-151v124h151v101h-151v125h151v2z" />
<glyph unicode="&#xa6;" horiz-adv-x="550" d="M102 -104v722h347v-722h-347zM102 842v712h347v-712h-347z" />
<glyph unicode="&#xa8;" d="M211 1325q0 63 44 108.5t107 45.5t108.5 -45.5t45.5 -108.5t-45.5 -107t-108.5 -44t-107 44t-44 107zM608 1325q0 63 44.5 108.5t107.5 45.5t108 -45.5t45 -108.5t-45 -107t-108 -44t-107.5 44t-44.5 107z" />
<glyph unicode="&#xa9;" horiz-adv-x="1275" d="M102 528v385q0 257 149 406t392 149q241 0 386 -148.5t145 -406.5v-385q0 -257 -144.5 -401.5t-386.5 -144.5q-244 0 -392.5 145t-148.5 401zM225 528q0 -199 115 -311.5t303 -112.5q186 0 297 112t111 312v385q0 201 -111.5 317t-296.5 116q-187 0 -302.5 -116.5 t-115.5 -316.5v-385zM332 526v387q0 153 82 239.5t229 86.5q148 0 229.5 -82.5t81.5 -232.5v-127h-247v155q0 68 -64 68q-63 0 -63 -68v-456q0 -38 18.5 -54t44.5 -16q25 0 44.5 16.5t19.5 53.5v127h247v-103q0 -148 -81.5 -229.5t-229.5 -81.5q-147 0 -229 85t-82 232z" />
<glyph unicode="&#xaa;" horiz-adv-x="1044" d="M82 881v180q0 399 309 399q44 0 84 -11.5t65.5 -28t44.5 -33t27 -27.5l9 -12v98h321v-948h-321v96q-3 -5 -9 -12.5t-26.5 -27t-45 -34.5t-65 -27t-84.5 -12q-309 0 -309 400zM311 184q0 85 59 145t144 60t145 -60t60 -145q0 -84 -60 -143t-145 -59t-144 58.5t-59 143.5z M426 897q0 -53 26 -74.5t62 -21.5q35 0 60.5 21.5t25.5 74.5v147q0 53 -26 75t-60 22q-36 0 -62 -22t-26 -75v-147z" />
<glyph unicode="&#xab;" horiz-adv-x="1171" d="M61 586l269 415h258l-158 -415l158 -416h-258zM584 586l268 415h258l-158 -415l158 -416h-258z" />
<glyph unicode="&#xad;" horiz-adv-x="669" d="M61 453v268h547v-268h-547z" />
<glyph unicode="&#xae;" horiz-adv-x="1275" d="M102 528v385q0 257 149 406t392 149q241 0 386 -148.5t145 -406.5v-385q0 -257 -144.5 -401.5t-386.5 -144.5q-244 0 -392.5 145t-148.5 401zM225 528q0 -199 115 -311.5t303 -112.5q186 0 297 112t111 312v385q0 201 -111.5 317t-296.5 116q-187 0 -302.5 -116.5 t-115.5 -316.5v-385zM344 274v904h295q141 0 227 -94t86 -261v-12q0 -199 -123 -291l115 -246h-256l-72 189h-34v-189h-238zM582 686h28q107 0 107 127v8q0 77 -30 103t-77 26h-28v-264z" />
<glyph unicode="&#xaf;" d="M268 1194v240h586v-240h-586z" />
<glyph unicode="&#xb0;" horiz-adv-x="786" d="M82 1130v11q0 151 81.5 238t229.5 87q146 0 229 -87.5t83 -237.5v-11q0 -154 -83 -241.5t-229 -87.5q-148 0 -229.5 87t-81.5 242zM330 1094q0 -70 63 -70q26 0 45 16t19 54v80q0 69 -64 69q-63 0 -63 -69v-80z" />
<glyph unicode="&#xb4;" d="M416 1186l112 321h369l-223 -321h-258z" />
<glyph unicode="&#xb6;" horiz-adv-x="843" d="M82 963v241q0 133 50 187.5t142 54.5h467v-1555h-321v822h-146q-192 0 -192 250z" />
<glyph unicode="&#xb7;" horiz-adv-x="530" d="M61 590q0 85 59 145t144 60t145 -60t60 -145t-60 -144t-145 -59t-144 59t-59 144z" />
<glyph unicode="&#xb8;" d="M268 -373l230 422h196l-57 -422h-369z" />
<glyph unicode="&#xba;" horiz-adv-x="1003" d="M72 934v84q0 206 113.5 327t316.5 121q200 0 315 -121.5t115 -326.5v-84q0 -211 -114.5 -333t-315.5 -122q-204 0 -317 121.5t-113 333.5zM299 184q0 85 59 145t144 60t145 -60t60 -145q0 -84 -60 -143t-145 -59t-144 58.5t-59 143.5zM414 883q0 -53 26 -75t62 -22 q35 0 61.5 22t26.5 75v180q0 53 -26 74.5t-62 21.5q-88 0 -88 -96v-180z" />
<glyph unicode="&#xbb;" horiz-adv-x="1171" d="M61 170l158 416l-158 415h258l269 -415l-269 -416h-258zM584 170l157 416l-157 415h258l268 -415l-268 -416h-258z" />
<glyph unicode="&#xbf;" horiz-adv-x="1003" d="M41 377q0 90 26.5 158t69 107.5t94 68.5t103.5 49t94.5 40.5t69 52t26.5 75.5h97q28 -76 30 -136t-16 -98.5t-46.5 -69t-62 -53t-63 -43t-49 -47.5t-19.5 -59q0 -52 33 -75t84 -23q50 0 83.5 30.5t33.5 106.5h354q0 -227 -125.5 -353t-345.5 -126q-204 0 -337.5 114.5 t-133.5 280.5zM367 1270q0 85 58.5 144t143.5 59t145 -59t60 -144t-60 -145t-145 -60q-84 0 -143 60t-59 145z" />
<glyph unicode="&#xc0;" horiz-adv-x="1124" d="M0 0l373 1446h385l366 -1446h-360l-53 244h-295l-56 -244h-360zM258 1917h369l112 -322h-258zM485 557h156l-76 408z" />
<glyph unicode="&#xc1;" horiz-adv-x="1124" d="M0 0l373 1446h385l366 -1446h-360l-53 244h-295l-56 -244h-360zM406 1595l112 322h369l-223 -322h-258zM485 557h156l-76 408z" />
<glyph unicode="&#xc2;" horiz-adv-x="1124" d="M0 0l373 1446h385l366 -1446h-360l-53 244h-295l-56 -244h-360zM229 1554l172 322h332l172 -322h-258l-80 117l-80 -117h-258zM485 557h156l-76 408z" />
<glyph unicode="&#xc3;" horiz-adv-x="1124" d="M0 0l373 1446h385l366 -1446h-360l-53 244h-295l-56 -244h-360zM227 1591v269q78 40 152 46t132.5 -9t117.5 -30t131 -8.5t149 48.5v-269q-57 -35 -109.5 -47.5t-95 -7.5t-84 18t-84.5 25.5t-87.5 18t-102 -7t-119.5 -46.5zM485 557h156l-76 408z" />
<glyph unicode="&#xc4;" horiz-adv-x="1124" d="M0 0l373 1446h385l366 -1446h-360l-53 244h-295l-56 -244h-360zM213 1735q0 63 44.5 108t107.5 45t108 -45t45 -108t-45 -107.5t-108 -44.5t-107.5 44.5t-44.5 107.5zM485 557h156l-76 408zM610 1735q0 63 44.5 108t107.5 45t108 -45t45 -108t-45 -107.5t-108 -44.5 t-107.5 44.5t-44.5 107.5z" />
<glyph unicode="&#xc5;" horiz-adv-x="1124" d="M0 0l373 1446h385l366 -1446h-360l-53 244h-295l-56 -244h-360zM362 1790q0 85 59 145t144 60t145 -60t60 -145t-60 -144t-145 -59t-144 59t-59 144zM485 557h156l-76 408zM518 1794q0 -20 14.5 -34.5t34.5 -14.5t33.5 14.5t13.5 34.5t-13.5 33.5t-33.5 13.5t-34.5 -13.5 t-14.5 -33.5z" />
<glyph unicode="&#xc6;" horiz-adv-x="1660" d="M0 0l655 1446h934v-350h-444v-222h338v-315h-338v-211h444v-348h-805v244h-299l-104 -244h-381zM618 557h164l2 401z" />
<glyph unicode="&#xc7;" horiz-adv-x="1132" d="M113 473v500q0 221 133.5 360.5t345.5 139.5t345.5 -139.5t133.5 -360.5v-84h-360v96q0 45 -10 74.5t-29.5 42.5t-37.5 17.5t-42 4.5t-42 -4.5t-37.5 -17.5t-29.5 -42.5t-10 -74.5v-524q0 -44 11 -73t30 -42t37 -17.5t41 -4.5t41 4.5t37 17.5t30 42t11 73v78h360v-66 q0 -189 -102 -321t-271 -166l-49 -359h-368l194 361q-165 35 -263.5 166t-98.5 319z" />
<glyph unicode="&#xc8;" horiz-adv-x="999" d="M123 0v1446h805v-350h-445v-222h338v-315h-338v-211h445v-348h-805zM227 1917h369l113 -322h-258z" />
<glyph unicode="&#xc9;" horiz-adv-x="999" d="M123 0v1446h805v-350h-445v-222h338v-315h-338v-211h445v-348h-805zM367 1595l112 322h369l-223 -322h-258z" />
<glyph unicode="&#xca;" horiz-adv-x="999" d="M123 0v1446h805v-350h-445v-222h338v-315h-338v-211h445v-348h-805zM182 1595l172 322h332l172 -322h-258l-80 117l-80 -117h-258z" />
<glyph unicode="&#xcb;" horiz-adv-x="999" d="M123 0v1446h805v-350h-445v-222h338v-315h-338v-211h445v-348h-805zM174 1735q0 63 44.5 108t107.5 45t108 -45t45 -108t-45 -107.5t-108 -44.5t-107.5 44.5t-44.5 107.5zM571 1735q0 63 44.5 108t107.5 45t108.5 -45t45.5 -108t-45.5 -107.5t-108.5 -44.5t-107.5 44.5 t-44.5 107.5z" />
<glyph unicode="&#xcc;" horiz-adv-x="589" d="M-27 1917h369l113 -322h-258zM123 0v1446h360v-1446h-360z" />
<glyph unicode="&#xcd;" horiz-adv-x="598" d="M123 0v1446h360v-1446h-360zM129 1595l113 322h368l-223 -322h-258z" />
<glyph unicode="&#xce;" horiz-adv-x="593" d="M-37 1595l172 322h332l172 -322h-258l-80 117l-80 -117h-258zM123 0v1446h360v-1446h-360z" />
<glyph unicode="&#xcf;" horiz-adv-x="593" d="M-47 1735q0 63 44 108t107 45t108.5 -45t45.5 -108t-45.5 -107.5t-108.5 -44.5t-107 44.5t-44 107.5zM123 0v1446h360v-1446h-360zM350 1735q0 63 44.5 108t107.5 45t108 -45t45 -108t-45 -107.5t-108 -44.5t-107.5 44.5t-44.5 107.5z" />
<glyph unicode="&#xd0;" horiz-adv-x="1165" d="M0 664v124h123v658h481q217 0 348 -143t131 -400v-368q0 -255 -130.5 -395t-348.5 -140h-481v664h-123zM485 344h74q32 0 57 6.5t52 25t42 60t15 103.5v362q0 62 -14 103.5t-40.5 60.5t-52 26t-59.5 7h-74v-310h119v-124h-119v-320z" />
<glyph unicode="&#xd1;" horiz-adv-x="1210" d="M123 0v1446h342l260 -641v641h362v-1446h-342l-260 637v-637h-362zM266 1591v269q78 40 152 46t132.5 -9t117.5 -30t131 -8.5t149 48.5v-269q-57 -35 -109.5 -47.5t-95 -7.5t-84 18t-84.5 25.5t-87.5 18t-102 -7t-119.5 -46.5z" />
<glyph unicode="&#xd2;" d="M82 475v498q0 221 133.5 360.5t345.5 139.5q211 0 345 -139.5t134 -360.5v-498q0 -220 -134 -359t-345 -139q-212 0 -345.5 139t-133.5 359zM231 1917h369l113 -322h-258zM442 463q0 -44 11 -73t30 -42t37 -17.5t41 -4.5t41 4.5t37 17.5t30 42t11 73v522q0 45 -10 74.5 t-29.5 42.5t-37.5 17.5t-42 4.5t-42 -4.5t-37.5 -17.5t-29.5 -42.5t-10 -74.5v-522z" />
<glyph unicode="&#xd3;" d="M82 475v498q0 221 133.5 360.5t345.5 139.5q211 0 345 -139.5t134 -360.5v-498q0 -220 -134 -359t-345 -139q-212 0 -345.5 139t-133.5 359zM434 1595l113 322h368l-223 -322h-258zM442 463q0 -44 11 -73t30 -42t37 -17.5t41 -4.5t41 4.5t37 17.5t30 42t11 73v522 q0 45 -10 74.5t-29.5 42.5t-37.5 17.5t-42 4.5t-42 -4.5t-37.5 -17.5t-29.5 -42.5t-10 -74.5v-522z" />
<glyph unicode="&#xd4;" d="M82 475v498q0 221 133.5 360.5t345.5 139.5q211 0 345 -139.5t134 -360.5v-498q0 -220 -134 -359t-345 -139q-212 0 -345.5 139t-133.5 359zM223 1595l172 322h332l172 -322h-258l-80 117l-80 -117h-258zM442 463q0 -44 11 -73t30 -42t37 -17.5t41 -4.5t41 4.5t37 17.5 t30 42t11 73v522q0 45 -10 74.5t-29.5 42.5t-37.5 17.5t-42 4.5t-42 -4.5t-37.5 -17.5t-29.5 -42.5t-10 -74.5v-522z" />
<glyph unicode="&#xd5;" d="M82 475v498q0 221 133.5 360.5t345.5 139.5q211 0 345 -139.5t134 -360.5v-498q0 -220 -134 -359t-345 -139q-212 0 -345.5 139t-133.5 359zM223 1591v269q78 40 152 46t132.5 -9t117.5 -30t131 -8.5t149 48.5v-269q-57 -35 -109.5 -47.5t-95 -7.5t-84 18t-84.5 25.5 t-87.5 18t-102 -7t-119.5 -46.5zM442 463q0 -44 11 -73t30 -42t37 -17.5t41 -4.5t41 4.5t37 17.5t30 42t11 73v522q0 45 -10 74.5t-29.5 42.5t-37.5 17.5t-42 4.5t-42 -4.5t-37.5 -17.5t-29.5 -42.5t-10 -74.5v-522z" />
<glyph unicode="&#xd6;" d="M82 475v498q0 221 133.5 360.5t345.5 139.5q211 0 345 -139.5t134 -360.5v-498q0 -220 -134 -359t-345 -139q-212 0 -345.5 139t-133.5 359zM207 1735q0 63 44 108t107 45t108.5 -45t45.5 -108t-45.5 -107.5t-108.5 -44.5t-107 44.5t-44 107.5zM442 463q0 -44 11 -73 t30 -42t37 -17.5t41 -4.5t41 4.5t37 17.5t30 42t11 73v522q0 45 -10 74.5t-29.5 42.5t-37.5 17.5t-42 4.5t-42 -4.5t-37.5 -17.5t-29.5 -42.5t-10 -74.5v-522zM604 1735q0 63 44.5 108t107.5 45t108 -45t45 -108t-45 -107.5t-108 -44.5t-107.5 44.5t-44.5 107.5z" />
<glyph unicode="&#xd7;" horiz-adv-x="1048" d="M82 506l221 221l-221 221l221 221l221 -223l221 223l222 -221l-224 -221l224 -221l-222 -221l-221 221l-221 -221z" />
<glyph unicode="&#xd8;" horiz-adv-x="1189" d="M113 481v486q0 222 134 361.5t347 139.5q83 0 166 -26l57 174h125l-74 -227q98 -65 153.5 -175.5t55.5 -246.5v-486q0 -221 -135 -360t-348 -139q-89 0 -172 26l-55 -170h-125l71 225q-95 65 -147.5 173.5t-52.5 244.5zM475 559l178 553q-22 12 -59 12q-24 0 -42 -4.5 t-37.5 -17.5t-29.5 -42.5t-10 -74.5v-426zM528 338q24 -12 66 -12q23 0 41 4.5t37 17.5t30 42t11 73v444z" />
<glyph unicode="&#xd9;" horiz-adv-x="1163" d="M102 473v973h361v-985q0 -44 11 -73t30 -42t37 -17.5t41 -4.5t40.5 4.5t37 17.5t30 42t10.5 73v985h361v-973q0 -220 -134 -359t-345 -139q-212 0 -346 139t-134 359zM252 1917h369l112 -322h-258z" />
<glyph unicode="&#xda;" horiz-adv-x="1163" d="M102 473v973h361v-985q0 -44 11 -73t30 -42t37 -17.5t41 -4.5t40.5 4.5t37 17.5t30 42t10.5 73v985h361v-973q0 -220 -134 -359t-345 -139q-212 0 -346 139t-134 359zM459 1595l112 322h369l-223 -322h-258z" />
<glyph unicode="&#xdb;" horiz-adv-x="1163" d="M102 473v973h361v-985q0 -44 11 -73t30 -42t37 -17.5t41 -4.5t40.5 4.5t37 17.5t30 42t10.5 73v985h361v-973q0 -220 -134 -359t-345 -139q-212 0 -346 139t-134 359zM244 1595l172 322h332l172 -322h-258l-80 117l-80 -117h-258z" />
<glyph unicode="&#xdc;" horiz-adv-x="1163" d="M102 473v973h361v-985q0 -44 11 -73t30 -42t37 -17.5t41 -4.5t40.5 4.5t37 17.5t30 42t10.5 73v985h361v-973q0 -220 -134 -359t-345 -139q-212 0 -346 139t-134 359zM233 1735q0 63 44.5 108t107.5 45t108.5 -45t45.5 -108t-45.5 -107.5t-108.5 -44.5t-107.5 44.5 t-44.5 107.5zM631 1735q0 63 44 108t107 45t108.5 -45t45.5 -108t-45.5 -107.5t-108.5 -44.5t-107 44.5t-44 107.5z" />
<glyph unicode="&#xdd;" horiz-adv-x="1083" d="M0 1446h371l170 -514l174 514h368l-362 -942v-504h-361v504zM418 1595l112 322h369l-223 -322h-258z" />
<glyph unicode="&#xde;" horiz-adv-x="1126" d="M123 0v1446h360v-148h115q216 0 346.5 -142.5t130.5 -399.5v-60q0 -256 -130 -395t-347 -139h-113v-162h-362zM485 506h66q25 0 45.5 3.5t44.5 15t40 31.5t27 57t11 87v54q0 62 -14.5 103.5t-41 60.5t-52.5 25.5t-60 6.5h-66v-444z" />
<glyph unicode="&#xdf;" horiz-adv-x="1267" d="M41 844v305h106q0 107 24.5 189.5t78.5 146t147.5 96.5t223.5 33h24q475 0 475 -336v-21q0 -101 -43.5 -156t-140.5 -85q270 -63 270 -369v-203q0 -71 -12.5 -133.5t-40.5 -120t-72 -99.5t-106.5 -71t-144.5 -35.5t-187 7.5v305q57 -5 98 4.5t65 29.5t37.5 56t18 74.5 t4.5 93.5v14q0 37 -0.5 60t-2 51t-5 43.5t-9.5 34.5t-14 29t-20.5 21.5t-28.5 17t-37.5 10.5t-47 6.5t-58.5 1.5v305q127 0 127 78v14q0 39 -26.5 62.5t-98.5 23.5h-33q-33 0 -56 -9.5t-36 -24.5t-20 -40t-9 -47.5t-2 -56.5v-1149h-342v844h-106z" />
<glyph unicode="&#xe0;" horiz-adv-x="1034" d="M72 383v383q0 399 309 399q44 0 84 -11.5t65.5 -28t44 -33t27.5 -28.5l8 -11v98h322v-1151h-322v96q-3 -5 -8.5 -12.5t-26.5 -26.5t-45 -34t-64.5 -27t-84.5 -12q-309 0 -309 399zM207 1610h368l113 -322h-258zM416 399q0 -53 26 -74.5t62 -21.5q35 0 60.5 21.5 t25.5 74.5v351q0 53 -25.5 74.5t-60.5 21.5q-36 0 -62 -21.5t-26 -74.5v-351z" />
<glyph unicode="&#xe1;" horiz-adv-x="1034" d="M72 383v383q0 399 309 399q44 0 84 -11.5t65.5 -28t44 -33t27.5 -28.5l8 -11v98h322v-1151h-322v96q-3 -5 -8.5 -12.5t-26.5 -26.5t-45 -34t-64.5 -27t-84.5 -12q-309 0 -309 399zM360 1290l113 322h369l-224 -322h-258zM416 399q0 -53 26 -74.5t62 -21.5q35 0 60.5 21.5 t25.5 74.5v351q0 53 -25.5 74.5t-60.5 21.5q-36 0 -62 -21.5t-26 -74.5v-351z" />
<glyph unicode="&#xe2;" horiz-adv-x="1034" d="M72 383v383q0 399 309 399q44 0 84 -11.5t65.5 -28t44 -33t27.5 -28.5l8 -11v98h322v-1151h-322v96q-3 -5 -8.5 -12.5t-26.5 -26.5t-45 -34t-64.5 -27t-84.5 -12q-309 0 -309 399zM180 1288l172 322h332l172 -322h-258l-80 117l-80 -117h-258zM416 399q0 -53 26 -74.5 t62 -21.5q35 0 60.5 21.5t25.5 74.5v351q0 53 -25.5 74.5t-60.5 21.5q-36 0 -62 -21.5t-26 -74.5v-351z" />
<glyph unicode="&#xe3;" horiz-adv-x="1034" d="M72 383v383q0 399 309 399q44 0 84 -11.5t65.5 -28t44 -33t27.5 -28.5l8 -11v98h322v-1151h-322v96q-3 -5 -8.5 -12.5t-26.5 -26.5t-45 -34t-64.5 -27t-84.5 -12q-309 0 -309 399zM180 1278v268q78 40 152 46t132.5 -9t117.5 -30t131 -8.5t149 48.5v-268 q-57 -35 -109.5 -47.5t-95 -7.5t-84 18t-84.5 25.5t-87.5 18t-102 -7t-119.5 -46.5zM416 399q0 -53 26 -74.5t62 -21.5q35 0 60.5 21.5t25.5 74.5v351q0 53 -25.5 74.5t-60.5 21.5q-36 0 -62 -21.5t-26 -74.5v-351z" />
<glyph unicode="&#xe4;" horiz-adv-x="1060" d="M72 383v383q0 399 309 399q44 0 84 -11.5t65.5 -28t44 -33t27.5 -28.5l8 -11v98h322v-1151h-322v96q-3 -5 -8.5 -12.5t-26.5 -26.5t-45 -34t-64.5 -27t-84.5 -12q-309 0 -309 399zM256 1427q0 63 44.5 108.5t107.5 45.5t108 -45.5t45 -108.5t-45 -107t-108 -44t-107.5 44 t-44.5 107zM416 399q0 -53 26 -74.5t62 -21.5q35 0 60.5 21.5t25.5 74.5v351q0 53 -25.5 74.5t-60.5 21.5q-36 0 -62 -21.5t-26 -74.5v-351zM653 1427q0 63 44.5 108.5t107.5 45.5t108 -45.5t45 -108.5t-45 -107t-108 -44t-107.5 44t-44.5 107z" />
<glyph unicode="&#xe5;" horiz-adv-x="1034" d="M72 383v383q0 399 309 399q44 0 84 -11.5t65.5 -28t44 -33t27.5 -28.5l8 -11v98h322v-1151h-322v96q-3 -5 -8.5 -12.5t-26.5 -26.5t-45 -34t-64.5 -27t-84.5 -12q-309 0 -309 399zM354 1483q0 85 59 145t144 60t145 -60t60 -145t-60 -144t-145 -59t-144 59t-59 144z M416 399q0 -53 26 -74.5t62 -21.5q35 0 60.5 21.5t25.5 74.5v351q0 53 -25.5 74.5t-60.5 21.5q-36 0 -62 -21.5t-26 -74.5v-351zM510 1487q0 -20 14.5 -34.5t34.5 -14.5t33.5 14.5t13.5 34.5t-13.5 33.5t-33.5 13.5t-34.5 -13.5t-14.5 -33.5z" />
<glyph unicode="&#xe6;" horiz-adv-x="1513" d="M72 383v383q0 399 309 399q44 0 84 -11.5t65.5 -28t44 -33t27.5 -28.5l8 -11v98h322v-98q3 5 8.5 12.5t25.5 26.5t43.5 34t62 27t81.5 12q299 0 299 -399l-2 -295h-518v-121q0 -50 26 -71t62 -21q34 0 61 18.5t27 59.5v29h342v-9q0 -106 -21 -180t-62 -115t-93 -59 t-121 -18q-43 0 -81 11.5t-62.5 28t-43 33t-26.5 27.5l-8 12v-96h-322v96q-3 -5 -8.5 -12.5t-26.5 -26.5t-45 -34t-64.5 -27t-84.5 -12q-309 0 -309 399zM416 399q0 -53 26 -74.5t62 -21.5q35 0 60.5 21.5t25.5 74.5v351q0 53 -25.5 74.5t-60.5 21.5q-36 0 -62 -21.5 t-26 -74.5v-351zM932 707h176v81q0 53 -26 74t-62 21q-83 0 -88 -84v-92z" />
<glyph unicode="&#xe7;" horiz-adv-x="993" d="M72 428v283q0 212 113.5 333t316.5 121t316.5 -116t113.5 -326v-39h-342v80q0 94 -88 94t-88 -94v-381q0 -53 26 -74.5t62 -21.5q35 0 61.5 21.5t26.5 74.5v70h342v-37q0 -174 -83.5 -285.5t-234.5 -140.5l-49 -363h-368l196 363q-153 31 -237 146t-84 292z" />
<glyph unicode="&#xe8;" horiz-adv-x="993" d="M72 428v283q0 212 113.5 333t316.5 121t316.5 -116t113.5 -326v-252h-518v-121q0 -50 26 -71t62 -21q34 0 61 18.5t27 59.5v29h342v-9q0 -162 -116.5 -269t-313.5 -107q-202 0 -316 120.5t-114 327.5zM180 1612h369l113 -322h-259zM414 707h176v81q0 53 -26 74t-62 21 q-88 0 -88 -95v-81z" />
<glyph unicode="&#xe9;" horiz-adv-x="993" d="M72 428v283q0 212 113.5 333t316.5 121t316.5 -116t113.5 -326v-252h-518v-121q0 -50 26 -71t62 -21q34 0 61 18.5t27 59.5v29h342v-9q0 -162 -116.5 -269t-313.5 -107q-202 0 -316 120.5t-114 327.5zM369 1290l112 322h369l-223 -322h-258zM414 707h176v81q0 53 -26 74 t-62 21q-88 0 -88 -95v-81z" />
<glyph unicode="&#xea;" horiz-adv-x="993" d="M72 428v283q0 212 113.5 333t316.5 121t316.5 -116t113.5 -326v-252h-518v-121q0 -50 26 -71t62 -21q34 0 61 18.5t27 59.5v29h342v-9q0 -162 -116.5 -269t-313.5 -107q-202 0 -316 120.5t-114 327.5zM160 1286l172 322h332l172 -322h-258l-80 117l-80 -117h-258z M414 707h176v81q0 53 -26 74t-62 21q-88 0 -88 -95v-81z" />
<glyph unicode="&#xeb;" horiz-adv-x="993" d="M72 428v283q0 212 113.5 333t316.5 121t316.5 -116t113.5 -326v-252h-518v-121q0 -50 26 -71t62 -21q34 0 61 18.5t27 59.5v29h342v-9q0 -162 -116.5 -269t-313.5 -107q-202 0 -316 120.5t-114 327.5zM147 1430q0 63 44.5 108t107.5 45t108.5 -45t45.5 -108t-45.5 -107.5 t-108.5 -44.5t-107.5 44.5t-44.5 107.5zM414 707h176v81q0 53 -26 74t-62 21q-88 0 -88 -95v-81zM545 1430q0 63 44 108t107 45t108.5 -45t45.5 -108t-45.5 -107.5t-108.5 -44.5t-107 44.5t-44 107.5z" />
<glyph unicode="&#xec;" horiz-adv-x="559" d="M-53 1612h368l113 -322h-258zM102 0v1151h342v-1151h-342z" />
<glyph unicode="&#xed;" horiz-adv-x="550" d="M102 0v1151h342v-1151h-342zM113 1290l112 322h369l-223 -322h-258z" />
<glyph unicode="&#xee;" horiz-adv-x="536" d="M-66 1290l172 322h332l172 -322h-258l-80 117l-79 -117h-259zM102 0v1151h342v-1151h-342z" />
<glyph unicode="&#xef;" horiz-adv-x="536" d="M-70 1430q0 63 44.5 108t107.5 45t108.5 -45t45.5 -108t-45.5 -107.5t-108.5 -44.5t-107.5 44.5t-44.5 107.5zM102 0v1151h342v-1151h-342zM328 1430q0 63 44 108t107 45t108.5 -45t45.5 -108t-45.5 -107.5t-108.5 -44.5t-107 44.5t-44 107.5z" />
<glyph unicode="&#xf0;" horiz-adv-x="1007" d="M72 444v265q0 215 106.5 329.5t306.5 114.5l-57 102h-188v125h125l-89 174h349l84 -174h186v-125h-123l66 -133q98 -198 98 -420v-258q0 -211 -118.5 -332.5t-313.5 -121.5q-194 0 -313 121.5t-119 332.5zM416 430q0 -129 88 -129q38 0 63 26t25 103v285q0 78 -24 103.5 t-64 25.5q-39 0 -63.5 -26t-24.5 -103v-285z" />
<glyph unicode="&#xf1;" horiz-adv-x="1044" d="M102 0v1151h322v-100q3 5 8.5 12.5t26.5 26.5t45 34t64.5 27t84.5 12q310 0 310 -399v-764h-345v748q0 53 -26 74.5t-62 21.5q-35 0 -60.5 -21.5t-25.5 -74.5v-748h-342zM186 1288v268q66 34 130 44t111.5 0t101.5 -22t101.5 -21.5t110 1.5t127.5 46v-269 q-57 -35 -109.5 -47.5t-95 -7.5t-84 18t-84.5 25.5t-87.5 18t-102 -7t-119.5 -46.5z" />
<glyph unicode="&#xf2;" horiz-adv-x="1003" d="M72 434v281q0 206 113.5 327t316.5 121q200 0 315 -121.5t115 -326.5v-281q0 -211 -114.5 -332.5t-315.5 -121.5q-204 0 -317 121t-113 333zM176 1595h369l112 -321h-258zM414 383q0 -53 26 -74.5t62 -21.5q35 0 61.5 21.5t26.5 74.5v377q0 53 -26 74.5t-62 21.5 q-88 0 -88 -96v-377z" />
<glyph unicode="&#xf3;" horiz-adv-x="1003" d="M72 434v281q0 206 113.5 327t316.5 121q200 0 315 -121.5t115 -326.5v-281q0 -211 -114.5 -332.5t-315.5 -121.5q-204 0 -317 121t-113 333zM371 1288l112 322h369l-223 -322h-258zM414 383q0 -53 26 -74.5t62 -21.5q35 0 61.5 21.5t26.5 74.5v377q0 53 -26 74.5 t-62 21.5q-88 0 -88 -96v-377z" />
<glyph unicode="&#xf4;" horiz-adv-x="1003" d="M72 434v281q0 206 113.5 327t316.5 121q200 0 315 -121.5t115 -326.5v-281q0 -211 -114.5 -332.5t-315.5 -121.5q-204 0 -317 121t-113 333zM166 1286l172 322h332l172 -322h-258l-80 117l-80 -117h-258zM414 383q0 -53 26 -74.5t62 -21.5q35 0 61.5 21.5t26.5 74.5v377 q0 53 -26 74.5t-62 21.5q-88 0 -88 -96v-377z" />
<glyph unicode="&#xf5;" horiz-adv-x="1003" d="M72 434v281q0 206 113.5 327t316.5 121q200 0 315 -121.5t115 -326.5v-281q0 -211 -114.5 -332.5t-315.5 -121.5q-204 0 -317 121t-113 333zM164 1280v268q78 40 152 46t132.5 -9t117.5 -30t131 -8.5t149 48.5v-268q-57 -35 -109.5 -47.5t-95 -7.5t-84 18t-84.5 25.5 t-87.5 18t-102 -7t-119.5 -46.5zM414 383q0 -53 26 -74.5t62 -21.5q35 0 61.5 21.5t26.5 74.5v377q0 53 -26 74.5t-62 21.5q-88 0 -88 -96v-377z" />
<glyph unicode="&#xf6;" horiz-adv-x="1003" d="M72 434v281q0 206 113.5 327t316.5 121q200 0 315 -121.5t115 -326.5v-281q0 -211 -114.5 -332.5t-315.5 -121.5q-204 0 -317 121t-113 333zM152 1425q0 63 44 108.5t107 45.5t108.5 -45.5t45.5 -108.5t-45.5 -107t-108.5 -44t-107 44t-44 107zM414 383q0 -53 26 -74.5 t62 -21.5q35 0 61.5 21.5t26.5 74.5v377q0 53 -26 74.5t-62 21.5q-88 0 -88 -96v-377zM549 1425q0 63 44 108.5t107 45.5t108.5 -45.5t45.5 -108.5t-45.5 -107t-108.5 -44t-107 44t-44 107z" />
<glyph unicode="&#xf7;" horiz-adv-x="1019" d="M82 569v312h856v-312h-856zM328 313q0 77 53 131t129 54q75 0 129.5 -54.5t54.5 -130.5q0 -75 -54.5 -128.5t-129.5 -53.5q-76 0 -129 53.5t-53 128.5zM328 1133q0 77 53 130.5t129 53.5q75 0 129.5 -54t54.5 -130q0 -75 -54.5 -129t-129.5 -54q-76 0 -129 54t-53 129z " />
<glyph unicode="&#xf8;" horiz-adv-x="1009" d="M72 438v273q0 208 114.5 330t319.5 122q57 0 110 -12l50 158h125l-62 -199q100 -54 154.5 -157t54.5 -242v-273q0 -213 -115 -335.5t-317 -122.5q-64 0 -119 12l-47 -154h-125l59 195q-98 54 -150 158t-52 247zM418 500l108 354q-8 2 -20 2q-88 0 -88 -96v-260zM477 289 q10 -2 29 -2q35 0 61.5 21.5t26.5 74.5v285z" />
<glyph unicode="&#xf9;" horiz-adv-x="1024" d="M82 434v717h342v-768q0 -53 26 -74.5t62 -21.5q35 0 61.5 21.5t26.5 74.5v768h342v-717q0 -211 -114.5 -332.5t-315.5 -121.5q-204 0 -317 121t-113 333zM197 1593h368l113 -321h-258z" />
<glyph unicode="&#xfa;" horiz-adv-x="1024" d="M82 434v717h342v-768q0 -53 26 -74.5t62 -21.5q35 0 61.5 21.5t26.5 74.5v768h342v-717q0 -211 -114.5 -332.5t-315.5 -121.5q-204 0 -317 121t-113 333zM371 1292l112 322h369l-223 -322h-258z" />
<glyph unicode="&#xfb;" horiz-adv-x="1024" d="M82 434v717h342v-768q0 -53 26 -74.5t62 -21.5q35 0 61.5 21.5t26.5 74.5v768h342v-717q0 -211 -114.5 -332.5t-315.5 -121.5q-204 0 -317 121t-113 333zM176 1284l172 322h332l172 -322h-258l-80 117l-80 -117h-258z" />
<glyph unicode="&#xfc;" horiz-adv-x="1036" d="M82 434v717h342v-768q0 -53 26 -74.5t62 -21.5q35 0 61.5 21.5t26.5 74.5v768h342v-717q0 -211 -114.5 -332.5t-315.5 -121.5q-204 0 -317 121t-113 333zM162 1430q0 63 44 108t107 45t108.5 -45t45.5 -108t-45.5 -107.5t-108.5 -44.5t-107 44.5t-44 107.5zM559 1430 q0 63 44.5 108t107.5 45t108 -45t45 -108t-45 -107.5t-108 -44.5t-107.5 44.5t-44.5 107.5z" />
<glyph unicode="&#xfd;" horiz-adv-x="970" d="M0 1151h360l127 -623l123 623h361l-422 -1554h-344l108 403zM389 1290l113 322h368l-223 -322h-258z" />
<glyph unicode="&#xfe;" horiz-adv-x="1044" d="M102 -403v1957h342v-501q2 5 6.5 12.5t22 26.5t39 34t59.5 27t82 12q310 0 310 -399v-383q0 -399 -310 -399q-44 0 -82 11.5t-60.5 28t-38.5 33t-22 27.5l-6 12v-499h-342zM444 399q0 -53 25.5 -74.5t60.5 -21.5q36 0 62 21.5t26 74.5v351q0 53 -26 74.5t-62 21.5 q-35 0 -60.5 -21.5t-25.5 -74.5v-351z" />
<glyph unicode="&#xff;" horiz-adv-x="970" d="M0 1151h360l127 -623l123 623h361l-422 -1554h-344l108 403zM137 1423q0 63 44.5 108.5t107.5 45.5t108 -45.5t45 -108.5t-45 -107t-108 -44t-107.5 44t-44.5 107zM535 1423q0 63 44 108.5t107 45.5t108.5 -45.5t45.5 -108.5t-45.5 -107t-108.5 -44t-107 44t-44 107z" />
<glyph unicode="&#x152;" horiz-adv-x="1556" d="M82 498v475q0 218 132 345.5t347 127.5h924v-350h-445v-222h338v-315h-338v-211h445v-348h-924q-212 0 -345.5 139t-133.5 359zM442 485q0 -44 11 -73t30 -42t37 -17.5t41 -4.5h119v748h-119q-24 0 -42.5 -4.5t-37 -18t-29 -43t-10.5 -74.5v-471z" />
<glyph unicode="&#x153;" horiz-adv-x="1511" d="M72 434v281q0 213 96 330.5t299 117.5q101 0 180.5 -44.5t110.5 -117.5q34 73 116.5 118.5t182.5 45.5q393 0 393 -442v-252h-518v-121q0 -50 26 -71t62 -21q34 0 61 18.5t27 59.5v29h342v-9q0 -165 -102.5 -270.5t-292.5 -105.5q-105 0 -184.5 41.5t-110.5 113.5 q-29 -72 -108 -113.5t-181 -41.5q-199 0 -299 119t-100 335zM414 383q0 -53 26 -74.5t62 -21.5q35 0 61.5 21.5t26.5 74.5v377q0 53 -26 74.5t-62 21.5q-88 0 -88 -96v-377zM932 707h176v81q0 53 -26 74t-62 21q-88 0 -88 -95v-53v-20v-8z" />
<glyph unicode="&#x178;" horiz-adv-x="1083" d="M0 1446h371l170 -514l174 514h368l-362 -942v-504h-361v504zM190 1735q0 63 44.5 108t107.5 45t108.5 -45t45.5 -108t-45.5 -107.5t-108.5 -44.5t-107.5 44.5t-44.5 107.5zM588 1735q0 63 44 108t107 45t108.5 -45t45.5 -108t-45.5 -107.5t-108.5 -44.5t-107 44.5 t-44 107.5z" />
<glyph unicode="&#x2c6;" d="M223 1186l172 321h332l172 -321h-258l-80 117l-80 -117h-258z" />
<glyph unicode="&#x2dc;" d="M219 1182v268q78 40 152 46t132.5 -9t117.5 -30t131 -8.5t149 48.5v-268q-57 -35 -109.5 -47.5t-95 -7.5t-84 18t-84.5 25.5t-87.5 18t-102 -7t-119.5 -46.5z" />
<glyph unicode="&#x2000;" horiz-adv-x="997" />
<glyph unicode="&#x2001;" horiz-adv-x="1995" />
<glyph unicode="&#x2002;" horiz-adv-x="997" />
<glyph unicode="&#x2003;" horiz-adv-x="1995" />
<glyph unicode="&#x2004;" horiz-adv-x="665" />
<glyph unicode="&#x2005;" horiz-adv-x="498" />
<glyph unicode="&#x2006;" horiz-adv-x="332" />
<glyph unicode="&#x2007;" horiz-adv-x="332" />
<glyph unicode="&#x2008;" horiz-adv-x="249" />
<glyph unicode="&#x2009;" horiz-adv-x="399" />
<glyph unicode="&#x200a;" horiz-adv-x="110" />
<glyph unicode="&#x2010;" horiz-adv-x="669" d="M61 453v268h547v-268h-547z" />
<glyph unicode="&#x2011;" horiz-adv-x="669" d="M61 453v268h547v-268h-547z" />
<glyph unicode="&#x2012;" horiz-adv-x="669" d="M61 453v268h547v-268h-547z" />
<glyph unicode="&#x2013;" horiz-adv-x="804" d="M61 453v268h682v-268h-682z" />
<glyph unicode="&#x2014;" horiz-adv-x="1056" d="M61 453v268h934v-268h-934z" />
<glyph unicode="&#x2018;" horiz-adv-x="546" d="M0 764l268 682h258l-157 -682h-369z" />
<glyph unicode="&#x2019;" horiz-adv-x="546" d="M20 764l158 682h369l-268 -682h-259z" />
<glyph unicode="&#x201a;" horiz-adv-x="546" d="M-20 -268l157 663h369l-268 -663h-258z" />
<glyph unicode="&#x201c;" horiz-adv-x="1034" d="M0 764l268 682h258l-157 -682h-369zM487 764l269 682h258l-158 -682h-369z" />
<glyph unicode="&#x201d;" horiz-adv-x="1034" d="M20 764l158 682h369l-268 -682h-259zM508 764l158 682h368l-268 -682h-258z" />
<glyph unicode="&#x201e;" horiz-adv-x="1034" d="M-20 -268l157 663h369l-268 -663h-258zM467 -268l158 663h368l-268 -663h-258z" />
<glyph unicode="&#x2022;" horiz-adv-x="952" d="M82 598v12q0 191 104 302.5t291 111.5q183 0 288 -112t105 -302v-12q0 -195 -104.5 -306.5t-288.5 -111.5q-188 0 -291.5 111t-103.5 307z" />
<glyph unicode="&#x2026;" horiz-adv-x="1595" d="M61 184q0 85 59 145t144 60t145 -60t60 -145q0 -84 -60 -143t-145 -59t-144 58.5t-59 143.5zM594 184q0 85 59 145t144 60t144.5 -60t59.5 -145t-59.5 -143.5t-144.5 -58.5t-144 58.5t-59 143.5zM1126 184q0 85 59 145t144 60t145 -60t60 -145q0 -84 -60 -143t-145 -59 t-144 58.5t-59 143.5z" />
<glyph unicode="&#x202f;" horiz-adv-x="399" />
<glyph unicode="&#x2039;" horiz-adv-x="649" d="M61 586l269 415h258l-158 -415l158 -416h-258z" />
<glyph unicode="&#x203a;" horiz-adv-x="649" d="M61 170l158 416l-158 415h258l269 -415l-269 -416h-258z" />
<glyph unicode="&#x205f;" horiz-adv-x="498" />
<glyph unicode="&#x20ac;" horiz-adv-x="1175" d="M41 539v125h115v100h-115v125h115v84q0 221 133.5 360.5t345.5 139.5t345.5 -139.5t133.5 -360.5v-84h-360v96q0 45 -10 74.5t-29.5 42.5t-37.5 17.5t-42 4.5t-42 -4.5t-37.5 -17.5t-29.5 -42.5t-10 -74.5v-96h119v-125h-119v-100h119v-125h-119v-86q0 -44 11 -73 t30 -42.5t37 -18t41 -4.5t41 4.5t37 18t30 42.5t11 73v86h360v-74q0 -220 -133.5 -359t-345.5 -139t-345.5 139t-133.5 359v74h-115z" />
<glyph unicode="&#x2122;" horiz-adv-x="1476" d="M61 1245v201h496v-201h-143v-545h-209v545h-144zM659 700v746h211l138 -367l137 367h209v-746h-209v287l-70 -190h-137l-68 188v-285h-211z" />
<glyph unicode="&#xe000;" horiz-adv-x="1146" d="M0 0v1147h1147v-1147h-1147z" />
</font>
</defs>
</svg>
